<?xml version="1.0" encoding="utf-8" standalone="no"?>
<!DOCTYPE svg PUBLIC "-//W3C//DTD SVG 1.1//EN"
  "http://www.w3.org/Graphics/SVG/1.1/DTD/svg11.dtd">
<!-- Created with matplotlib (https://matplotlib.org/) -->
<svg height="662.298685pt" version="1.1" viewBox="0 0 608.098437 662.298685" width="608.098437pt" xmlns="http://www.w3.org/2000/svg" xmlns:xlink="http://www.w3.org/1999/xlink">
 <metadata>
  <rdf:RDF xmlns:cc="http://creativecommons.org/ns#" xmlns:dc="http://purl.org/dc/elements/1.1/" xmlns:rdf="http://www.w3.org/1999/02/22-rdf-syntax-ns#">
   <cc:Work>
    <dc:type rdf:resource="http://purl.org/dc/dcmitype/StillImage"/>
    <dc:date>2021-02-20T15:52:45.079715</dc:date>
    <dc:format>image/svg+xml</dc:format>
    <dc:creator>
     <cc:Agent>
      <dc:title>Matplotlib v3.3.2, https://matplotlib.org/</dc:title>
     </cc:Agent>
    </dc:creator>
   </cc:Work>
  </rdf:RDF>
 </metadata>
 <defs>
  <style type="text/css">*{stroke-linecap:butt;stroke-linejoin:round;}</style>
 </defs>
 <g id="figure_1">
  <g id="patch_1">
   <path d="M 0 662.298685 
L 608.098437 662.298685 
L 608.098437 0 
L 0 0 
z
" style="fill:none;"/>
  </g>
  <g id="axes_1">
   <g id="patch_2">
    <path d="M 42.898438 326.290909 
L 296.534801 326.290909 
L 296.534801 79.2 
L 42.898438 79.2 
z
" style="fill:#ffffff;"/>
   </g>
   <g id="matplotlib.axis_1">
    <g id="xtick_1">
     <g id="line2d_1">
      <path clip-path="url(#p87ea11089e)" d="M 54.427363 326.290909 
L 54.427363 79.2 
" style="fill:none;stroke:#b0b0b0;stroke-linecap:square;stroke-width:0.8;"/>
     </g>
     <g id="line2d_2">
      <defs>
       <path d="M 0 0 
L 0 3.5 
" id="m13a832ce12" style="stroke:#000000;stroke-width:0.8;"/>
      </defs>
      <g>
       <use style="stroke:#000000;stroke-width:0.8;" x="54.427363" xlink:href="#m13a832ce12" y="326.290909"/>
      </g>
     </g>
    </g>
    <g id="xtick_2">
     <g id="line2d_3">
      <path clip-path="url(#p87ea11089e)" d="M 101.008881 326.290909 
L 101.008881 79.2 
" style="fill:none;stroke:#b0b0b0;stroke-linecap:square;stroke-width:0.8;"/>
     </g>
     <g id="line2d_4">
      <g>
       <use style="stroke:#000000;stroke-width:0.8;" x="101.008881" xlink:href="#m13a832ce12" y="326.290909"/>
      </g>
     </g>
    </g>
    <g id="xtick_3">
     <g id="line2d_5">
      <path clip-path="url(#p87ea11089e)" d="M 147.590398 326.290909 
L 147.590398 79.2 
" style="fill:none;stroke:#b0b0b0;stroke-linecap:square;stroke-width:0.8;"/>
     </g>
     <g id="line2d_6">
      <g>
       <use style="stroke:#000000;stroke-width:0.8;" x="147.590398" xlink:href="#m13a832ce12" y="326.290909"/>
      </g>
     </g>
    </g>
    <g id="xtick_4">
     <g id="line2d_7">
      <path clip-path="url(#p87ea11089e)" d="M 194.171916 326.290909 
L 194.171916 79.2 
" style="fill:none;stroke:#b0b0b0;stroke-linecap:square;stroke-width:0.8;"/>
     </g>
     <g id="line2d_8">
      <g>
       <use style="stroke:#000000;stroke-width:0.8;" x="194.171916" xlink:href="#m13a832ce12" y="326.290909"/>
      </g>
     </g>
    </g>
    <g id="xtick_5">
     <g id="line2d_9">
      <path clip-path="url(#p87ea11089e)" d="M 240.753434 326.290909 
L 240.753434 79.2 
" style="fill:none;stroke:#b0b0b0;stroke-linecap:square;stroke-width:0.8;"/>
     </g>
     <g id="line2d_10">
      <g>
       <use style="stroke:#000000;stroke-width:0.8;" x="240.753434" xlink:href="#m13a832ce12" y="326.290909"/>
      </g>
     </g>
    </g>
    <g id="xtick_6">
     <g id="line2d_11">
      <path clip-path="url(#p87ea11089e)" d="M 287.334951 326.290909 
L 287.334951 79.2 
" style="fill:none;stroke:#b0b0b0;stroke-linecap:square;stroke-width:0.8;"/>
     </g>
     <g id="line2d_12">
      <g>
       <use style="stroke:#000000;stroke-width:0.8;" x="287.334951" xlink:href="#m13a832ce12" y="326.290909"/>
      </g>
     </g>
    </g>
    <g id="text_1">
     <!-- x_label0 -->
     <g transform="translate(148.983026 337.889347)scale(0.1 -0.1)">
      <defs>
       <path d="M 54.890625 54.6875 
L 35.109375 28.078125 
L 55.90625 0 
L 45.3125 0 
L 29.390625 21.484375 
L 13.484375 0 
L 2.875 0 
L 24.125 28.609375 
L 4.6875 54.6875 
L 15.28125 54.6875 
L 29.78125 35.203125 
L 44.28125 54.6875 
z
" id="DejaVuSans-120"/>
       <path d="M 50.984375 -16.609375 
L 50.984375 -23.578125 
L -0.984375 -23.578125 
L -0.984375 -16.609375 
z
" id="DejaVuSans-95"/>
       <path d="M 9.421875 75.984375 
L 18.40625 75.984375 
L 18.40625 0 
L 9.421875 0 
z
" id="DejaVuSans-108"/>
       <path d="M 34.28125 27.484375 
Q 23.390625 27.484375 19.1875 25 
Q 14.984375 22.515625 14.984375 16.5 
Q 14.984375 11.71875 18.140625 8.90625 
Q 21.296875 6.109375 26.703125 6.109375 
Q 34.1875 6.109375 38.703125 11.40625 
Q 43.21875 16.703125 43.21875 25.484375 
L 43.21875 27.484375 
z
M 52.203125 31.203125 
L 52.203125 0 
L 43.21875 0 
L 43.21875 8.296875 
Q 40.140625 3.328125 35.546875 0.953125 
Q 30.953125 -1.421875 24.3125 -1.421875 
Q 15.921875 -1.421875 10.953125 3.296875 
Q 6 8.015625 6 15.921875 
Q 6 25.140625 12.171875 29.828125 
Q 18.359375 34.515625 30.609375 34.515625 
L 43.21875 34.515625 
L 43.21875 35.40625 
Q 43.21875 41.609375 39.140625 45 
Q 35.0625 48.390625 27.6875 48.390625 
Q 23 48.390625 18.546875 47.265625 
Q 14.109375 46.140625 10.015625 43.890625 
L 10.015625 52.203125 
Q 14.9375 54.109375 19.578125 55.046875 
Q 24.21875 56 28.609375 56 
Q 40.484375 56 46.34375 49.84375 
Q 52.203125 43.703125 52.203125 31.203125 
z
" id="DejaVuSans-97"/>
       <path d="M 48.6875 27.296875 
Q 48.6875 37.203125 44.609375 42.84375 
Q 40.53125 48.484375 33.40625 48.484375 
Q 26.265625 48.484375 22.1875 42.84375 
Q 18.109375 37.203125 18.109375 27.296875 
Q 18.109375 17.390625 22.1875 11.75 
Q 26.265625 6.109375 33.40625 6.109375 
Q 40.53125 6.109375 44.609375 11.75 
Q 48.6875 17.390625 48.6875 27.296875 
z
M 18.109375 46.390625 
Q 20.953125 51.265625 25.265625 53.625 
Q 29.59375 56 35.59375 56 
Q 45.5625 56 51.78125 48.09375 
Q 58.015625 40.1875 58.015625 27.296875 
Q 58.015625 14.40625 51.78125 6.484375 
Q 45.5625 -1.421875 35.59375 -1.421875 
Q 29.59375 -1.421875 25.265625 0.953125 
Q 20.953125 3.328125 18.109375 8.203125 
L 18.109375 0 
L 9.078125 0 
L 9.078125 75.984375 
L 18.109375 75.984375 
z
" id="DejaVuSans-98"/>
       <path d="M 56.203125 29.59375 
L 56.203125 25.203125 
L 14.890625 25.203125 
Q 15.484375 15.921875 20.484375 11.0625 
Q 25.484375 6.203125 34.421875 6.203125 
Q 39.59375 6.203125 44.453125 7.46875 
Q 49.3125 8.734375 54.109375 11.28125 
L 54.109375 2.78125 
Q 49.265625 0.734375 44.1875 -0.34375 
Q 39.109375 -1.421875 33.890625 -1.421875 
Q 20.796875 -1.421875 13.15625 6.1875 
Q 5.515625 13.8125 5.515625 26.8125 
Q 5.515625 40.234375 12.765625 48.109375 
Q 20.015625 56 32.328125 56 
Q 43.359375 56 49.78125 48.890625 
Q 56.203125 41.796875 56.203125 29.59375 
z
M 47.21875 32.234375 
Q 47.125 39.59375 43.09375 43.984375 
Q 39.0625 48.390625 32.421875 48.390625 
Q 24.90625 48.390625 20.390625 44.140625 
Q 15.875 39.890625 15.1875 32.171875 
z
" id="DejaVuSans-101"/>
       <path d="M 31.78125 66.40625 
Q 24.171875 66.40625 20.328125 58.90625 
Q 16.5 51.421875 16.5 36.375 
Q 16.5 21.390625 20.328125 13.890625 
Q 24.171875 6.390625 31.78125 6.390625 
Q 39.453125 6.390625 43.28125 13.890625 
Q 47.125 21.390625 47.125 36.375 
Q 47.125 51.421875 43.28125 58.90625 
Q 39.453125 66.40625 31.78125 66.40625 
z
M 31.78125 74.21875 
Q 44.046875 74.21875 50.515625 64.515625 
Q 56.984375 54.828125 56.984375 36.375 
Q 56.984375 17.96875 50.515625 8.265625 
Q 44.046875 -1.421875 31.78125 -1.421875 
Q 19.53125 -1.421875 13.0625 8.265625 
Q 6.59375 17.96875 6.59375 36.375 
Q 6.59375 54.828125 13.0625 64.515625 
Q 19.53125 74.21875 31.78125 74.21875 
z
" id="DejaVuSans-48"/>
      </defs>
      <use xlink:href="#DejaVuSans-120"/>
      <use x="59.179688" xlink:href="#DejaVuSans-95"/>
      <use x="109.179688" xlink:href="#DejaVuSans-108"/>
      <use x="136.962891" xlink:href="#DejaVuSans-97"/>
      <use x="198.242188" xlink:href="#DejaVuSans-98"/>
      <use x="261.71875" xlink:href="#DejaVuSans-101"/>
      <use x="323.242188" xlink:href="#DejaVuSans-108"/>
      <use x="351.025391" xlink:href="#DejaVuSans-48"/>
     </g>
    </g>
   </g>
   <g id="matplotlib.axis_2">
    <g id="ytick_1">
     <g id="line2d_13">
      <path clip-path="url(#p87ea11089e)" d="M 42.898438 326.290909 
L 296.534801 326.290909 
" style="fill:none;stroke:#b0b0b0;stroke-linecap:square;stroke-width:0.8;"/>
     </g>
     <g id="line2d_14">
      <defs>
       <path d="M 0 0 
L -3.5 0 
" id="m1b1b709968" style="stroke:#000000;stroke-width:0.8;"/>
      </defs>
      <g>
       <use style="stroke:#000000;stroke-width:0.8;" x="42.898438" xlink:href="#m1b1b709968" y="326.290909"/>
      </g>
     </g>
     <g id="text_2">
      <!-- −3 -->
      <g transform="translate(21.15625 330.090128)scale(0.1 -0.1)">
       <defs>
        <path d="M 10.59375 35.5 
L 73.1875 35.5 
L 73.1875 27.203125 
L 10.59375 27.203125 
z
" id="DejaVuSans-8722"/>
        <path d="M 40.578125 39.3125 
Q 47.65625 37.796875 51.625 33 
Q 55.609375 28.21875 55.609375 21.1875 
Q 55.609375 10.40625 48.1875 4.484375 
Q 40.765625 -1.421875 27.09375 -1.421875 
Q 22.515625 -1.421875 17.65625 -0.515625 
Q 12.796875 0.390625 7.625 2.203125 
L 7.625 11.71875 
Q 11.71875 9.328125 16.59375 8.109375 
Q 21.484375 6.890625 26.8125 6.890625 
Q 36.078125 6.890625 40.9375 10.546875 
Q 45.796875 14.203125 45.796875 21.1875 
Q 45.796875 27.640625 41.28125 31.265625 
Q 36.765625 34.90625 28.71875 34.90625 
L 20.21875 34.90625 
L 20.21875 43.015625 
L 29.109375 43.015625 
Q 36.375 43.015625 40.234375 45.921875 
Q 44.09375 48.828125 44.09375 54.296875 
Q 44.09375 59.90625 40.109375 62.90625 
Q 36.140625 65.921875 28.71875 65.921875 
Q 24.65625 65.921875 20.015625 65.03125 
Q 15.375 64.15625 9.8125 62.3125 
L 9.8125 71.09375 
Q 15.4375 72.65625 20.34375 73.4375 
Q 25.25 74.21875 29.59375 74.21875 
Q 40.828125 74.21875 47.359375 69.109375 
Q 53.90625 64.015625 53.90625 55.328125 
Q 53.90625 49.265625 50.4375 45.09375 
Q 46.96875 40.921875 40.578125 39.3125 
z
" id="DejaVuSans-51"/>
       </defs>
       <use xlink:href="#DejaVuSans-8722"/>
       <use x="83.789062" xlink:href="#DejaVuSans-51"/>
      </g>
     </g>
    </g>
    <g id="ytick_2">
     <g id="line2d_15">
      <path clip-path="url(#p87ea11089e)" d="M 42.898438 285.109091 
L 296.534801 285.109091 
" style="fill:none;stroke:#b0b0b0;stroke-linecap:square;stroke-width:0.8;"/>
     </g>
     <g id="line2d_16">
      <g>
       <use style="stroke:#000000;stroke-width:0.8;" x="42.898438" xlink:href="#m1b1b709968" y="285.109091"/>
      </g>
     </g>
     <g id="text_3">
      <!-- −2 -->
      <g transform="translate(21.15625 288.90831)scale(0.1 -0.1)">
       <defs>
        <path d="M 19.1875 8.296875 
L 53.609375 8.296875 
L 53.609375 0 
L 7.328125 0 
L 7.328125 8.296875 
Q 12.9375 14.109375 22.625 23.890625 
Q 32.328125 33.6875 34.8125 36.53125 
Q 39.546875 41.84375 41.421875 45.53125 
Q 43.3125 49.21875 43.3125 52.78125 
Q 43.3125 58.59375 39.234375 62.25 
Q 35.15625 65.921875 28.609375 65.921875 
Q 23.96875 65.921875 18.8125 64.3125 
Q 13.671875 62.703125 7.8125 59.421875 
L 7.8125 69.390625 
Q 13.765625 71.78125 18.9375 73 
Q 24.125 74.21875 28.421875 74.21875 
Q 39.75 74.21875 46.484375 68.546875 
Q 53.21875 62.890625 53.21875 53.421875 
Q 53.21875 48.921875 51.53125 44.890625 
Q 49.859375 40.875 45.40625 35.40625 
Q 44.1875 33.984375 37.640625 27.21875 
Q 31.109375 20.453125 19.1875 8.296875 
z
" id="DejaVuSans-50"/>
       </defs>
       <use xlink:href="#DejaVuSans-8722"/>
       <use x="83.789062" xlink:href="#DejaVuSans-50"/>
      </g>
     </g>
    </g>
    <g id="ytick_3">
     <g id="line2d_17">
      <path clip-path="url(#p87ea11089e)" d="M 42.898438 243.927273 
L 296.534801 243.927273 
" style="fill:none;stroke:#b0b0b0;stroke-linecap:square;stroke-width:0.8;"/>
     </g>
     <g id="line2d_18">
      <g>
       <use style="stroke:#000000;stroke-width:0.8;" x="42.898438" xlink:href="#m1b1b709968" y="243.927273"/>
      </g>
     </g>
     <g id="text_4">
      <!-- −1 -->
      <g transform="translate(21.15625 247.726491)scale(0.1 -0.1)">
       <defs>
        <path d="M 12.40625 8.296875 
L 28.515625 8.296875 
L 28.515625 63.921875 
L 10.984375 60.40625 
L 10.984375 69.390625 
L 28.421875 72.90625 
L 38.28125 72.90625 
L 38.28125 8.296875 
L 54.390625 8.296875 
L 54.390625 0 
L 12.40625 0 
z
" id="DejaVuSans-49"/>
       </defs>
       <use xlink:href="#DejaVuSans-8722"/>
       <use x="83.789062" xlink:href="#DejaVuSans-49"/>
      </g>
     </g>
    </g>
    <g id="ytick_4">
     <g id="line2d_19">
      <path clip-path="url(#p87ea11089e)" d="M 42.898438 202.745455 
L 296.534801 202.745455 
" style="fill:none;stroke:#b0b0b0;stroke-linecap:square;stroke-width:0.8;"/>
     </g>
     <g id="line2d_20">
      <g>
       <use style="stroke:#000000;stroke-width:0.8;" x="42.898438" xlink:href="#m1b1b709968" y="202.745455"/>
      </g>
     </g>
     <g id="text_5">
      <!-- 0 -->
      <g transform="translate(29.535938 206.544673)scale(0.1 -0.1)">
       <use xlink:href="#DejaVuSans-48"/>
      </g>
     </g>
    </g>
    <g id="ytick_5">
     <g id="line2d_21">
      <path clip-path="url(#p87ea11089e)" d="M 42.898438 161.563636 
L 296.534801 161.563636 
" style="fill:none;stroke:#b0b0b0;stroke-linecap:square;stroke-width:0.8;"/>
     </g>
     <g id="line2d_22">
      <g>
       <use style="stroke:#000000;stroke-width:0.8;" x="42.898438" xlink:href="#m1b1b709968" y="161.563636"/>
      </g>
     </g>
     <g id="text_6">
      <!-- 1 -->
      <g transform="translate(29.535938 165.362855)scale(0.1 -0.1)">
       <use xlink:href="#DejaVuSans-49"/>
      </g>
     </g>
    </g>
    <g id="ytick_6">
     <g id="line2d_23">
      <path clip-path="url(#p87ea11089e)" d="M 42.898438 120.381818 
L 296.534801 120.381818 
" style="fill:none;stroke:#b0b0b0;stroke-linecap:square;stroke-width:0.8;"/>
     </g>
     <g id="line2d_24">
      <g>
       <use style="stroke:#000000;stroke-width:0.8;" x="42.898438" xlink:href="#m1b1b709968" y="120.381818"/>
      </g>
     </g>
     <g id="text_7">
      <!-- 2 -->
      <g transform="translate(29.535938 124.181037)scale(0.1 -0.1)">
       <use xlink:href="#DejaVuSans-50"/>
      </g>
     </g>
    </g>
    <g id="ytick_7">
     <g id="line2d_25">
      <path clip-path="url(#p87ea11089e)" d="M 42.898438 79.2 
L 296.534801 79.2 
" style="fill:none;stroke:#b0b0b0;stroke-linecap:square;stroke-width:0.8;"/>
     </g>
     <g id="line2d_26">
      <g>
       <use style="stroke:#000000;stroke-width:0.8;" x="42.898438" xlink:href="#m1b1b709968" y="79.2"/>
      </g>
     </g>
     <g id="text_8">
      <!-- 3 -->
      <g transform="translate(29.535938 82.999219)scale(0.1 -0.1)">
       <use xlink:href="#DejaVuSans-51"/>
      </g>
     </g>
    </g>
    <g id="text_9">
     <!-- y_label0 -->
     <g transform="translate(14.798438 223.479048)rotate(-90)scale(0.1 -0.1)">
      <defs>
       <path d="M 32.171875 -5.078125 
Q 28.375 -14.84375 24.75 -17.8125 
Q 21.140625 -20.796875 15.09375 -20.796875 
L 7.90625 -20.796875 
L 7.90625 -13.28125 
L 13.1875 -13.28125 
Q 16.890625 -13.28125 18.9375 -11.515625 
Q 21 -9.765625 23.484375 -3.21875 
L 25.09375 0.875 
L 2.984375 54.6875 
L 12.5 54.6875 
L 29.59375 11.921875 
L 46.6875 54.6875 
L 56.203125 54.6875 
z
" id="DejaVuSans-121"/>
      </defs>
      <use xlink:href="#DejaVuSans-121"/>
      <use x="59.179688" xlink:href="#DejaVuSans-95"/>
      <use x="109.179688" xlink:href="#DejaVuSans-108"/>
      <use x="136.962891" xlink:href="#DejaVuSans-97"/>
      <use x="198.242188" xlink:href="#DejaVuSans-98"/>
      <use x="261.71875" xlink:href="#DejaVuSans-101"/>
      <use x="323.242188" xlink:href="#DejaVuSans-108"/>
      <use x="351.025391" xlink:href="#DejaVuSans-48"/>
     </g>
    </g>
   </g>
   <g id="line2d_27">
    <path clip-path="url(#p87ea11089e)" d="M 54.427363 202.745455 
L 56.756439 168.092149 
L 59.085515 165.298933 
L 61.414591 196.933876 
L 63.743667 233.911957 
L 66.072743 242.2357 
L 68.401818 214.252293 
L 70.730894 175.689552 
L 73.05997 162.001883 
L 75.389046 185.773666 
L 77.718122 225.149233 
L 80.047198 243.926869 
L 82.376274 224.842503 
L 84.70535 185.442212 
L 87.034425 161.950443 
L 89.363501 175.965419 
L 91.692577 214.601837 
L 94.021653 242.337551 
L 96.350729 233.672475 
L 98.679805 196.573239 
L 101.008881 165.148709 
L 103.337957 168.290454 
L 105.667033 203.109968 
L 107.996108 237.594349 
L 110.325184 240.038818 
L 112.65426 208.19594 
L 114.983336 171.341911 
L 117.312412 163.360155 
L 119.641488 191.589062 
L 121.970564 230.075105 
L 124.29964 243.434393 
L 126.628715 219.384459 
L 128.957791 180.036701 
L 131.286867 161.567266 
L 133.615943 180.956868 
L 135.945019 220.378795 
L 138.274095 243.588711 
L 140.603171 229.247525 
L 142.932247 190.540458 
L 145.261323 163.054608 
L 147.590398 172.06034 
L 149.919474 209.277824 
L 152.24855 240.489478 
L 154.577626 236.999451 
L 156.906702 202.016457 
L 159.235778 167.7037 
L 161.564854 165.608171 
L 163.89393 197.656489 
L 166.223005 234.383578 
L 168.552081 242.022723 
L 170.881157 213.550528 
L 173.210233 175.144198 
L 175.539309 162.114336 
L 177.868385 186.440537 
L 180.197461 225.757404 
L 182.526537 243.91719 
L 184.855613 224.223873 
L 187.184688 184.783397 
L 189.513764 161.857154 
L 191.84284 176.523426 
L 194.171916 215.29811 
L 196.500992 242.531941 
L 198.830068 233.18626 
L 201.159144 195.853443 
L 203.48822 164.85711 
L 205.817296 168.695146 
L 208.146371 203.838879 
L 210.475447 237.977323 
L 212.804523 239.723749 
L 215.133599 207.472502 
L 217.462675 170.875229 
L 219.791751 163.579295 
L 222.120827 192.292547 
L 224.449903 230.616154 
L 226.778978 243.315569 
L 229.108054 218.715007 
L 231.43713 179.432113 
L 233.766206 161.583397 
L 236.095282 181.578887 
L 238.424358 221.034822 
L 240.753434 243.675596 
L 243.08251 228.685387 
L 245.411586 189.846124 
L 247.740661 162.866445 
L 250.069737 172.551344 
L 252.398813 209.996569 
L 254.727889 240.775152 
L 257.056965 236.589407 
L 259.386041 201.287688 
L 261.715117 167.326233 
L 264.044193 165.929046 
L 266.373268 198.380696 
L 268.702344 234.845285 
L 271.03142 241.797437 
L 273.360496 212.845377 
L 275.689572 174.607495 
L 278.018648 162.239523 
L 280.347724 187.112518 
L 282.6768 226.358363 
L 285.005876 243.894609 
" style="fill:none;stroke:#1f77b4;stroke-linecap:square;stroke-width:1.5;"/>
   </g>
   <g id="line2d_28">
    <path clip-path="url(#p87ea11089e)" d="M 54.427363 161.563636 
L 56.756439 145.841518 
L 59.085515 182.436617 
L 61.414591 237.703567 
L 63.743667 260.83019 
L 66.072743 230.553975 
L 68.401818 174.710735 
L 70.730894 144.642486 
L 73.05997 167.993839 
L 75.389046 223.295667 
L 77.718122 259.703724 
L 80.047198 243.744611 
L 82.376274 190.091063 
L 84.70535 148.071904 
L 87.034425 156.319355 
L 89.363501 207.250748 
L 91.692577 254.039995 
L 94.021653 253.669278 
L 96.350729 206.479432 
L 98.679805 155.856585 
L 101.008881 148.343148 
L 103.337957 190.846941 
L 105.667033 244.290172 
L 107.996108 259.537382 
L 110.325184 222.570355 
L 112.65426 167.376406 
L 114.983336 144.700597 
L 117.312412 175.390962 
L 119.641488 231.230921 
L 121.970564 260.881474 
L 124.29964 237.082038 
L 126.628715 181.713706 
L 128.957791 145.681866 
L 131.286867 162.114027 
L 133.615943 215.902534 
L 135.945019 257.594483 
L 138.274095 248.858488 
L 140.603171 197.726383 
L 142.932247 151.208788 
L 145.261323 152.073767 
L 147.590398 199.526062 
L 149.919474 249.938251 
L 152.24855 256.961601 
L 154.577626 214.138876 
L 156.906702 160.841092 
L 159.235778 146.069986 
L 161.564854 183.406044 
L 163.89393 238.522668 
L 166.223005 260.745886 
L 168.552081 229.643775 
L 170.881157 173.811473 
L 173.210233 144.580939 
L 175.539309 168.826593 
L 177.868385 224.257092 
L 180.197461 259.90989 
L 182.526537 243.00597 
L 184.855613 189.086718 
L 187.184688 147.725245 
L 189.513764 156.949099 
L 191.84284 208.277911 
L 194.171916 254.520208 
L 196.500992 253.161036 
L 198.830068 205.45001 
L 201.159144 155.252429 
L 203.48822 148.719716 
L 205.817296 191.858018 
L 208.146371 245.006179 
L 210.475447 259.300025 
L 212.804523 221.597859 
L 215.133599 166.56288 
L 217.462675 144.793993 
L 219.791751 176.305413 
L 222.120827 232.125685 
L 224.449903 260.933909 
L 226.778978 236.243936 
L 229.108054 180.755614 
L 231.43713 145.48465 
L 233.766206 162.859005 
L 236.095282 216.904778 
L 238.424358 257.932534 
L 240.753434 248.221544 
L 243.08251 196.700047 
L 245.411586 150.736669 
L 247.740661 152.58993 
L 250.069737 200.555948 
L 252.398813 250.534989 
L 254.727889 256.576552 
L 257.056965 213.126053 
L 259.386041 160.131679 
L 261.715117 146.316214 
L 264.044193 184.381533 
L 266.373268 239.330556 
L 268.702344 260.643406 
L 271.03142 228.725146 
L 273.360496 172.921278 
L 275.689572 144.53762 
L 278.018648 169.669977 
L 280.347724 225.211775 
L 282.6768 260.098142 
L 285.005876 242.254712 
" style="fill:none;stroke:#ff0000;stroke-linecap:square;stroke-width:1.5;"/>
    <defs>
     <path d="M -5 5 
L 5 -5 
M -5 -5 
L 5 5 
" id="mc4a638f5c4" style="stroke:#ff0000;"/>
    </defs>
    <g clip-path="url(#p87ea11089e)">
     <use style="fill:#ff0000;stroke:#ff0000;" x="54.427363" xlink:href="#mc4a638f5c4" y="161.563636"/>
     <use style="fill:#ff0000;stroke:#ff0000;" x="56.756439" xlink:href="#mc4a638f5c4" y="145.841518"/>
     <use style="fill:#ff0000;stroke:#ff0000;" x="59.085515" xlink:href="#mc4a638f5c4" y="182.436617"/>
     <use style="fill:#ff0000;stroke:#ff0000;" x="61.414591" xlink:href="#mc4a638f5c4" y="237.703567"/>
     <use style="fill:#ff0000;stroke:#ff0000;" x="63.743667" xlink:href="#mc4a638f5c4" y="260.83019"/>
     <use style="fill:#ff0000;stroke:#ff0000;" x="66.072743" xlink:href="#mc4a638f5c4" y="230.553975"/>
     <use style="fill:#ff0000;stroke:#ff0000;" x="68.401818" xlink:href="#mc4a638f5c4" y="174.710735"/>
     <use style="fill:#ff0000;stroke:#ff0000;" x="70.730894" xlink:href="#mc4a638f5c4" y="144.642486"/>
     <use style="fill:#ff0000;stroke:#ff0000;" x="73.05997" xlink:href="#mc4a638f5c4" y="167.993839"/>
     <use style="fill:#ff0000;stroke:#ff0000;" x="75.389046" xlink:href="#mc4a638f5c4" y="223.295667"/>
     <use style="fill:#ff0000;stroke:#ff0000;" x="77.718122" xlink:href="#mc4a638f5c4" y="259.703724"/>
     <use style="fill:#ff0000;stroke:#ff0000;" x="80.047198" xlink:href="#mc4a638f5c4" y="243.744611"/>
     <use style="fill:#ff0000;stroke:#ff0000;" x="82.376274" xlink:href="#mc4a638f5c4" y="190.091063"/>
     <use style="fill:#ff0000;stroke:#ff0000;" x="84.70535" xlink:href="#mc4a638f5c4" y="148.071904"/>
     <use style="fill:#ff0000;stroke:#ff0000;" x="87.034425" xlink:href="#mc4a638f5c4" y="156.319355"/>
     <use style="fill:#ff0000;stroke:#ff0000;" x="89.363501" xlink:href="#mc4a638f5c4" y="207.250748"/>
     <use style="fill:#ff0000;stroke:#ff0000;" x="91.692577" xlink:href="#mc4a638f5c4" y="254.039995"/>
     <use style="fill:#ff0000;stroke:#ff0000;" x="94.021653" xlink:href="#mc4a638f5c4" y="253.669278"/>
     <use style="fill:#ff0000;stroke:#ff0000;" x="96.350729" xlink:href="#mc4a638f5c4" y="206.479432"/>
     <use style="fill:#ff0000;stroke:#ff0000;" x="98.679805" xlink:href="#mc4a638f5c4" y="155.856585"/>
     <use style="fill:#ff0000;stroke:#ff0000;" x="101.008881" xlink:href="#mc4a638f5c4" y="148.343148"/>
     <use style="fill:#ff0000;stroke:#ff0000;" x="103.337957" xlink:href="#mc4a638f5c4" y="190.846941"/>
     <use style="fill:#ff0000;stroke:#ff0000;" x="105.667033" xlink:href="#mc4a638f5c4" y="244.290172"/>
     <use style="fill:#ff0000;stroke:#ff0000;" x="107.996108" xlink:href="#mc4a638f5c4" y="259.537382"/>
     <use style="fill:#ff0000;stroke:#ff0000;" x="110.325184" xlink:href="#mc4a638f5c4" y="222.570355"/>
     <use style="fill:#ff0000;stroke:#ff0000;" x="112.65426" xlink:href="#mc4a638f5c4" y="167.376406"/>
     <use style="fill:#ff0000;stroke:#ff0000;" x="114.983336" xlink:href="#mc4a638f5c4" y="144.700597"/>
     <use style="fill:#ff0000;stroke:#ff0000;" x="117.312412" xlink:href="#mc4a638f5c4" y="175.390962"/>
     <use style="fill:#ff0000;stroke:#ff0000;" x="119.641488" xlink:href="#mc4a638f5c4" y="231.230921"/>
     <use style="fill:#ff0000;stroke:#ff0000;" x="121.970564" xlink:href="#mc4a638f5c4" y="260.881474"/>
     <use style="fill:#ff0000;stroke:#ff0000;" x="124.29964" xlink:href="#mc4a638f5c4" y="237.082038"/>
     <use style="fill:#ff0000;stroke:#ff0000;" x="126.628715" xlink:href="#mc4a638f5c4" y="181.713706"/>
     <use style="fill:#ff0000;stroke:#ff0000;" x="128.957791" xlink:href="#mc4a638f5c4" y="145.681866"/>
     <use style="fill:#ff0000;stroke:#ff0000;" x="131.286867" xlink:href="#mc4a638f5c4" y="162.114027"/>
     <use style="fill:#ff0000;stroke:#ff0000;" x="133.615943" xlink:href="#mc4a638f5c4" y="215.902534"/>
     <use style="fill:#ff0000;stroke:#ff0000;" x="135.945019" xlink:href="#mc4a638f5c4" y="257.594483"/>
     <use style="fill:#ff0000;stroke:#ff0000;" x="138.274095" xlink:href="#mc4a638f5c4" y="248.858488"/>
     <use style="fill:#ff0000;stroke:#ff0000;" x="140.603171" xlink:href="#mc4a638f5c4" y="197.726383"/>
     <use style="fill:#ff0000;stroke:#ff0000;" x="142.932247" xlink:href="#mc4a638f5c4" y="151.208788"/>
     <use style="fill:#ff0000;stroke:#ff0000;" x="145.261323" xlink:href="#mc4a638f5c4" y="152.073767"/>
     <use style="fill:#ff0000;stroke:#ff0000;" x="147.590398" xlink:href="#mc4a638f5c4" y="199.526062"/>
     <use style="fill:#ff0000;stroke:#ff0000;" x="149.919474" xlink:href="#mc4a638f5c4" y="249.938251"/>
     <use style="fill:#ff0000;stroke:#ff0000;" x="152.24855" xlink:href="#mc4a638f5c4" y="256.961601"/>
     <use style="fill:#ff0000;stroke:#ff0000;" x="154.577626" xlink:href="#mc4a638f5c4" y="214.138876"/>
     <use style="fill:#ff0000;stroke:#ff0000;" x="156.906702" xlink:href="#mc4a638f5c4" y="160.841092"/>
     <use style="fill:#ff0000;stroke:#ff0000;" x="159.235778" xlink:href="#mc4a638f5c4" y="146.069986"/>
     <use style="fill:#ff0000;stroke:#ff0000;" x="161.564854" xlink:href="#mc4a638f5c4" y="183.406044"/>
     <use style="fill:#ff0000;stroke:#ff0000;" x="163.89393" xlink:href="#mc4a638f5c4" y="238.522668"/>
     <use style="fill:#ff0000;stroke:#ff0000;" x="166.223005" xlink:href="#mc4a638f5c4" y="260.745886"/>
     <use style="fill:#ff0000;stroke:#ff0000;" x="168.552081" xlink:href="#mc4a638f5c4" y="229.643775"/>
     <use style="fill:#ff0000;stroke:#ff0000;" x="170.881157" xlink:href="#mc4a638f5c4" y="173.811473"/>
     <use style="fill:#ff0000;stroke:#ff0000;" x="173.210233" xlink:href="#mc4a638f5c4" y="144.580939"/>
     <use style="fill:#ff0000;stroke:#ff0000;" x="175.539309" xlink:href="#mc4a638f5c4" y="168.826593"/>
     <use style="fill:#ff0000;stroke:#ff0000;" x="177.868385" xlink:href="#mc4a638f5c4" y="224.257092"/>
     <use style="fill:#ff0000;stroke:#ff0000;" x="180.197461" xlink:href="#mc4a638f5c4" y="259.90989"/>
     <use style="fill:#ff0000;stroke:#ff0000;" x="182.526537" xlink:href="#mc4a638f5c4" y="243.00597"/>
     <use style="fill:#ff0000;stroke:#ff0000;" x="184.855613" xlink:href="#mc4a638f5c4" y="189.086718"/>
     <use style="fill:#ff0000;stroke:#ff0000;" x="187.184688" xlink:href="#mc4a638f5c4" y="147.725245"/>
     <use style="fill:#ff0000;stroke:#ff0000;" x="189.513764" xlink:href="#mc4a638f5c4" y="156.949099"/>
     <use style="fill:#ff0000;stroke:#ff0000;" x="191.84284" xlink:href="#mc4a638f5c4" y="208.277911"/>
     <use style="fill:#ff0000;stroke:#ff0000;" x="194.171916" xlink:href="#mc4a638f5c4" y="254.520208"/>
     <use style="fill:#ff0000;stroke:#ff0000;" x="196.500992" xlink:href="#mc4a638f5c4" y="253.161036"/>
     <use style="fill:#ff0000;stroke:#ff0000;" x="198.830068" xlink:href="#mc4a638f5c4" y="205.45001"/>
     <use style="fill:#ff0000;stroke:#ff0000;" x="201.159144" xlink:href="#mc4a638f5c4" y="155.252429"/>
     <use style="fill:#ff0000;stroke:#ff0000;" x="203.48822" xlink:href="#mc4a638f5c4" y="148.719716"/>
     <use style="fill:#ff0000;stroke:#ff0000;" x="205.817296" xlink:href="#mc4a638f5c4" y="191.858018"/>
     <use style="fill:#ff0000;stroke:#ff0000;" x="208.146371" xlink:href="#mc4a638f5c4" y="245.006179"/>
     <use style="fill:#ff0000;stroke:#ff0000;" x="210.475447" xlink:href="#mc4a638f5c4" y="259.300025"/>
     <use style="fill:#ff0000;stroke:#ff0000;" x="212.804523" xlink:href="#mc4a638f5c4" y="221.597859"/>
     <use style="fill:#ff0000;stroke:#ff0000;" x="215.133599" xlink:href="#mc4a638f5c4" y="166.56288"/>
     <use style="fill:#ff0000;stroke:#ff0000;" x="217.462675" xlink:href="#mc4a638f5c4" y="144.793993"/>
     <use style="fill:#ff0000;stroke:#ff0000;" x="219.791751" xlink:href="#mc4a638f5c4" y="176.305413"/>
     <use style="fill:#ff0000;stroke:#ff0000;" x="222.120827" xlink:href="#mc4a638f5c4" y="232.125685"/>
     <use style="fill:#ff0000;stroke:#ff0000;" x="224.449903" xlink:href="#mc4a638f5c4" y="260.933909"/>
     <use style="fill:#ff0000;stroke:#ff0000;" x="226.778978" xlink:href="#mc4a638f5c4" y="236.243936"/>
     <use style="fill:#ff0000;stroke:#ff0000;" x="229.108054" xlink:href="#mc4a638f5c4" y="180.755614"/>
     <use style="fill:#ff0000;stroke:#ff0000;" x="231.43713" xlink:href="#mc4a638f5c4" y="145.48465"/>
     <use style="fill:#ff0000;stroke:#ff0000;" x="233.766206" xlink:href="#mc4a638f5c4" y="162.859005"/>
     <use style="fill:#ff0000;stroke:#ff0000;" x="236.095282" xlink:href="#mc4a638f5c4" y="216.904778"/>
     <use style="fill:#ff0000;stroke:#ff0000;" x="238.424358" xlink:href="#mc4a638f5c4" y="257.932534"/>
     <use style="fill:#ff0000;stroke:#ff0000;" x="240.753434" xlink:href="#mc4a638f5c4" y="248.221544"/>
     <use style="fill:#ff0000;stroke:#ff0000;" x="243.08251" xlink:href="#mc4a638f5c4" y="196.700047"/>
     <use style="fill:#ff0000;stroke:#ff0000;" x="245.411586" xlink:href="#mc4a638f5c4" y="150.736669"/>
     <use style="fill:#ff0000;stroke:#ff0000;" x="247.740661" xlink:href="#mc4a638f5c4" y="152.58993"/>
     <use style="fill:#ff0000;stroke:#ff0000;" x="250.069737" xlink:href="#mc4a638f5c4" y="200.555948"/>
     <use style="fill:#ff0000;stroke:#ff0000;" x="252.398813" xlink:href="#mc4a638f5c4" y="250.534989"/>
     <use style="fill:#ff0000;stroke:#ff0000;" x="254.727889" xlink:href="#mc4a638f5c4" y="256.576552"/>
     <use style="fill:#ff0000;stroke:#ff0000;" x="257.056965" xlink:href="#mc4a638f5c4" y="213.126053"/>
     <use style="fill:#ff0000;stroke:#ff0000;" x="259.386041" xlink:href="#mc4a638f5c4" y="160.131679"/>
     <use style="fill:#ff0000;stroke:#ff0000;" x="261.715117" xlink:href="#mc4a638f5c4" y="146.316214"/>
     <use style="fill:#ff0000;stroke:#ff0000;" x="264.044193" xlink:href="#mc4a638f5c4" y="184.381533"/>
     <use style="fill:#ff0000;stroke:#ff0000;" x="266.373268" xlink:href="#mc4a638f5c4" y="239.330556"/>
     <use style="fill:#ff0000;stroke:#ff0000;" x="268.702344" xlink:href="#mc4a638f5c4" y="260.643406"/>
     <use style="fill:#ff0000;stroke:#ff0000;" x="271.03142" xlink:href="#mc4a638f5c4" y="228.725146"/>
     <use style="fill:#ff0000;stroke:#ff0000;" x="273.360496" xlink:href="#mc4a638f5c4" y="172.921278"/>
     <use style="fill:#ff0000;stroke:#ff0000;" x="275.689572" xlink:href="#mc4a638f5c4" y="144.53762"/>
     <use style="fill:#ff0000;stroke:#ff0000;" x="278.018648" xlink:href="#mc4a638f5c4" y="169.669977"/>
     <use style="fill:#ff0000;stroke:#ff0000;" x="280.347724" xlink:href="#mc4a638f5c4" y="225.211775"/>
     <use style="fill:#ff0000;stroke:#ff0000;" x="282.6768" xlink:href="#mc4a638f5c4" y="260.098142"/>
     <use style="fill:#ff0000;stroke:#ff0000;" x="285.005876" xlink:href="#mc4a638f5c4" y="242.254712"/>
    </g>
   </g>
   <g id="patch_3">
    <path d="M 42.898438 326.290909 
L 42.898438 79.2 
" style="fill:none;stroke:#000000;stroke-linecap:square;stroke-linejoin:miter;stroke-width:0.8;"/>
   </g>
   <g id="patch_4">
    <path d="M 296.534801 326.290909 
L 296.534801 79.2 
" style="fill:none;stroke:#000000;stroke-linecap:square;stroke-linejoin:miter;stroke-width:0.8;"/>
   </g>
   <g id="patch_5">
    <path d="M 42.898438 326.290909 
L 296.534801 326.290909 
" style="fill:none;stroke:#000000;stroke-linecap:square;stroke-linejoin:miter;stroke-width:0.8;"/>
   </g>
   <g id="patch_6">
    <path d="M 42.898438 79.2 
L 296.534801 79.2 
" style="fill:none;stroke:#000000;stroke-linecap:square;stroke-linejoin:miter;stroke-width:0.8;"/>
   </g>
   <g id="text_10">
    <!-- (0,0) 2 plots,grid, marker properties, -->
    <g transform="translate(59.931619 59.762625)scale(0.12 -0.12)">
     <defs>
      <path d="M 31 75.875 
Q 24.46875 64.65625 21.28125 53.65625 
Q 18.109375 42.671875 18.109375 31.390625 
Q 18.109375 20.125 21.3125 9.0625 
Q 24.515625 -2 31 -13.1875 
L 23.1875 -13.1875 
Q 15.875 -1.703125 12.234375 9.375 
Q 8.59375 20.453125 8.59375 31.390625 
Q 8.59375 42.28125 12.203125 53.3125 
Q 15.828125 64.359375 23.1875 75.875 
z
" id="DejaVuSans-40"/>
      <path d="M 11.71875 12.40625 
L 22.015625 12.40625 
L 22.015625 4 
L 14.015625 -11.625 
L 7.71875 -11.625 
L 11.71875 4 
z
" id="DejaVuSans-44"/>
      <path d="M 8.015625 75.875 
L 15.828125 75.875 
Q 23.140625 64.359375 26.78125 53.3125 
Q 30.421875 42.28125 30.421875 31.390625 
Q 30.421875 20.453125 26.78125 9.375 
Q 23.140625 -1.703125 15.828125 -13.1875 
L 8.015625 -13.1875 
Q 14.5 -2 17.703125 9.0625 
Q 20.90625 20.125 20.90625 31.390625 
Q 20.90625 42.671875 17.703125 53.65625 
Q 14.5 64.65625 8.015625 75.875 
z
" id="DejaVuSans-41"/>
      <path id="DejaVuSans-32"/>
      <path d="M 18.109375 8.203125 
L 18.109375 -20.796875 
L 9.078125 -20.796875 
L 9.078125 54.6875 
L 18.109375 54.6875 
L 18.109375 46.390625 
Q 20.953125 51.265625 25.265625 53.625 
Q 29.59375 56 35.59375 56 
Q 45.5625 56 51.78125 48.09375 
Q 58.015625 40.1875 58.015625 27.296875 
Q 58.015625 14.40625 51.78125 6.484375 
Q 45.5625 -1.421875 35.59375 -1.421875 
Q 29.59375 -1.421875 25.265625 0.953125 
Q 20.953125 3.328125 18.109375 8.203125 
z
M 48.6875 27.296875 
Q 48.6875 37.203125 44.609375 42.84375 
Q 40.53125 48.484375 33.40625 48.484375 
Q 26.265625 48.484375 22.1875 42.84375 
Q 18.109375 37.203125 18.109375 27.296875 
Q 18.109375 17.390625 22.1875 11.75 
Q 26.265625 6.109375 33.40625 6.109375 
Q 40.53125 6.109375 44.609375 11.75 
Q 48.6875 17.390625 48.6875 27.296875 
z
" id="DejaVuSans-112"/>
      <path d="M 30.609375 48.390625 
Q 23.390625 48.390625 19.1875 42.75 
Q 14.984375 37.109375 14.984375 27.296875 
Q 14.984375 17.484375 19.15625 11.84375 
Q 23.34375 6.203125 30.609375 6.203125 
Q 37.796875 6.203125 41.984375 11.859375 
Q 46.1875 17.53125 46.1875 27.296875 
Q 46.1875 37.015625 41.984375 42.703125 
Q 37.796875 48.390625 30.609375 48.390625 
z
M 30.609375 56 
Q 42.328125 56 49.015625 48.375 
Q 55.71875 40.765625 55.71875 27.296875 
Q 55.71875 13.875 49.015625 6.21875 
Q 42.328125 -1.421875 30.609375 -1.421875 
Q 18.84375 -1.421875 12.171875 6.21875 
Q 5.515625 13.875 5.515625 27.296875 
Q 5.515625 40.765625 12.171875 48.375 
Q 18.84375 56 30.609375 56 
z
" id="DejaVuSans-111"/>
      <path d="M 18.3125 70.21875 
L 18.3125 54.6875 
L 36.8125 54.6875 
L 36.8125 47.703125 
L 18.3125 47.703125 
L 18.3125 18.015625 
Q 18.3125 11.328125 20.140625 9.421875 
Q 21.96875 7.515625 27.59375 7.515625 
L 36.8125 7.515625 
L 36.8125 0 
L 27.59375 0 
Q 17.1875 0 13.234375 3.875 
Q 9.28125 7.765625 9.28125 18.015625 
L 9.28125 47.703125 
L 2.6875 47.703125 
L 2.6875 54.6875 
L 9.28125 54.6875 
L 9.28125 70.21875 
z
" id="DejaVuSans-116"/>
      <path d="M 44.28125 53.078125 
L 44.28125 44.578125 
Q 40.484375 46.53125 36.375 47.5 
Q 32.28125 48.484375 27.875 48.484375 
Q 21.1875 48.484375 17.84375 46.4375 
Q 14.5 44.390625 14.5 40.28125 
Q 14.5 37.15625 16.890625 35.375 
Q 19.28125 33.59375 26.515625 31.984375 
L 29.59375 31.296875 
Q 39.15625 29.25 43.1875 25.515625 
Q 47.21875 21.78125 47.21875 15.09375 
Q 47.21875 7.46875 41.1875 3.015625 
Q 35.15625 -1.421875 24.609375 -1.421875 
Q 20.21875 -1.421875 15.453125 -0.5625 
Q 10.6875 0.296875 5.421875 2 
L 5.421875 11.28125 
Q 10.40625 8.6875 15.234375 7.390625 
Q 20.0625 6.109375 24.8125 6.109375 
Q 31.15625 6.109375 34.5625 8.28125 
Q 37.984375 10.453125 37.984375 14.40625 
Q 37.984375 18.0625 35.515625 20.015625 
Q 33.0625 21.96875 24.703125 23.78125 
L 21.578125 24.515625 
Q 13.234375 26.265625 9.515625 29.90625 
Q 5.8125 33.546875 5.8125 39.890625 
Q 5.8125 47.609375 11.28125 51.796875 
Q 16.75 56 26.8125 56 
Q 31.78125 56 36.171875 55.265625 
Q 40.578125 54.546875 44.28125 53.078125 
z
" id="DejaVuSans-115"/>
      <path d="M 45.40625 27.984375 
Q 45.40625 37.75 41.375 43.109375 
Q 37.359375 48.484375 30.078125 48.484375 
Q 22.859375 48.484375 18.828125 43.109375 
Q 14.796875 37.75 14.796875 27.984375 
Q 14.796875 18.265625 18.828125 12.890625 
Q 22.859375 7.515625 30.078125 7.515625 
Q 37.359375 7.515625 41.375 12.890625 
Q 45.40625 18.265625 45.40625 27.984375 
z
M 54.390625 6.78125 
Q 54.390625 -7.171875 48.1875 -13.984375 
Q 42 -20.796875 29.203125 -20.796875 
Q 24.46875 -20.796875 20.265625 -20.09375 
Q 16.0625 -19.390625 12.109375 -17.921875 
L 12.109375 -9.1875 
Q 16.0625 -11.328125 19.921875 -12.34375 
Q 23.78125 -13.375 27.78125 -13.375 
Q 36.625 -13.375 41.015625 -8.765625 
Q 45.40625 -4.15625 45.40625 5.171875 
L 45.40625 9.625 
Q 42.625 4.78125 38.28125 2.390625 
Q 33.9375 0 27.875 0 
Q 17.828125 0 11.671875 7.65625 
Q 5.515625 15.328125 5.515625 27.984375 
Q 5.515625 40.671875 11.671875 48.328125 
Q 17.828125 56 27.875 56 
Q 33.9375 56 38.28125 53.609375 
Q 42.625 51.21875 45.40625 46.390625 
L 45.40625 54.6875 
L 54.390625 54.6875 
z
" id="DejaVuSans-103"/>
      <path d="M 41.109375 46.296875 
Q 39.59375 47.171875 37.8125 47.578125 
Q 36.03125 48 33.890625 48 
Q 26.265625 48 22.1875 43.046875 
Q 18.109375 38.09375 18.109375 28.8125 
L 18.109375 0 
L 9.078125 0 
L 9.078125 54.6875 
L 18.109375 54.6875 
L 18.109375 46.1875 
Q 20.953125 51.171875 25.484375 53.578125 
Q 30.03125 56 36.53125 56 
Q 37.453125 56 38.578125 55.875 
Q 39.703125 55.765625 41.0625 55.515625 
z
" id="DejaVuSans-114"/>
      <path d="M 9.421875 54.6875 
L 18.40625 54.6875 
L 18.40625 0 
L 9.421875 0 
z
M 9.421875 75.984375 
L 18.40625 75.984375 
L 18.40625 64.59375 
L 9.421875 64.59375 
z
" id="DejaVuSans-105"/>
      <path d="M 45.40625 46.390625 
L 45.40625 75.984375 
L 54.390625 75.984375 
L 54.390625 0 
L 45.40625 0 
L 45.40625 8.203125 
Q 42.578125 3.328125 38.25 0.953125 
Q 33.9375 -1.421875 27.875 -1.421875 
Q 17.96875 -1.421875 11.734375 6.484375 
Q 5.515625 14.40625 5.515625 27.296875 
Q 5.515625 40.1875 11.734375 48.09375 
Q 17.96875 56 27.875 56 
Q 33.9375 56 38.25 53.625 
Q 42.578125 51.265625 45.40625 46.390625 
z
M 14.796875 27.296875 
Q 14.796875 17.390625 18.875 11.75 
Q 22.953125 6.109375 30.078125 6.109375 
Q 37.203125 6.109375 41.296875 11.75 
Q 45.40625 17.390625 45.40625 27.296875 
Q 45.40625 37.203125 41.296875 42.84375 
Q 37.203125 48.484375 30.078125 48.484375 
Q 22.953125 48.484375 18.875 42.84375 
Q 14.796875 37.203125 14.796875 27.296875 
z
" id="DejaVuSans-100"/>
      <path d="M 52 44.1875 
Q 55.375 50.25 60.0625 53.125 
Q 64.75 56 71.09375 56 
Q 79.640625 56 84.28125 50.015625 
Q 88.921875 44.046875 88.921875 33.015625 
L 88.921875 0 
L 79.890625 0 
L 79.890625 32.71875 
Q 79.890625 40.578125 77.09375 44.375 
Q 74.3125 48.1875 68.609375 48.1875 
Q 61.625 48.1875 57.5625 43.546875 
Q 53.515625 38.921875 53.515625 30.90625 
L 53.515625 0 
L 44.484375 0 
L 44.484375 32.71875 
Q 44.484375 40.625 41.703125 44.40625 
Q 38.921875 48.1875 33.109375 48.1875 
Q 26.21875 48.1875 22.15625 43.53125 
Q 18.109375 38.875 18.109375 30.90625 
L 18.109375 0 
L 9.078125 0 
L 9.078125 54.6875 
L 18.109375 54.6875 
L 18.109375 46.1875 
Q 21.1875 51.21875 25.484375 53.609375 
Q 29.78125 56 35.6875 56 
Q 41.65625 56 45.828125 52.96875 
Q 50 49.953125 52 44.1875 
z
" id="DejaVuSans-109"/>
      <path d="M 9.078125 75.984375 
L 18.109375 75.984375 
L 18.109375 31.109375 
L 44.921875 54.6875 
L 56.390625 54.6875 
L 27.390625 29.109375 
L 57.625 0 
L 45.90625 0 
L 18.109375 26.703125 
L 18.109375 0 
L 9.078125 0 
z
" id="DejaVuSans-107"/>
     </defs>
     <use xlink:href="#DejaVuSans-40"/>
     <use x="39.013672" xlink:href="#DejaVuSans-48"/>
     <use x="102.636719" xlink:href="#DejaVuSans-44"/>
     <use x="134.423828" xlink:href="#DejaVuSans-48"/>
     <use x="198.046875" xlink:href="#DejaVuSans-41"/>
     <use x="237.060547" xlink:href="#DejaVuSans-32"/>
     <use x="268.847656" xlink:href="#DejaVuSans-50"/>
     <use x="332.470703" xlink:href="#DejaVuSans-32"/>
     <use x="364.257812" xlink:href="#DejaVuSans-112"/>
     <use x="427.734375" xlink:href="#DejaVuSans-108"/>
     <use x="455.517578" xlink:href="#DejaVuSans-111"/>
     <use x="516.699219" xlink:href="#DejaVuSans-116"/>
     <use x="555.908203" xlink:href="#DejaVuSans-115"/>
     <use x="608.007812" xlink:href="#DejaVuSans-44"/>
     <use x="639.794922" xlink:href="#DejaVuSans-103"/>
     <use x="703.271484" xlink:href="#DejaVuSans-114"/>
     <use x="744.384766" xlink:href="#DejaVuSans-105"/>
     <use x="772.167969" xlink:href="#DejaVuSans-100"/>
     <use x="835.644531" xlink:href="#DejaVuSans-44"/>
     <use x="867.431641" xlink:href="#DejaVuSans-32"/>
     <use x="899.21875" xlink:href="#DejaVuSans-109"/>
     <use x="996.630859" xlink:href="#DejaVuSans-97"/>
     <use x="1057.910156" xlink:href="#DejaVuSans-114"/>
     <use x="1099.023438" xlink:href="#DejaVuSans-107"/>
     <use x="1153.308594" xlink:href="#DejaVuSans-101"/>
     <use x="1214.832031" xlink:href="#DejaVuSans-114"/>
     <use x="1255.945312" xlink:href="#DejaVuSans-32"/>
     <use x="1287.732422" xlink:href="#DejaVuSans-112"/>
     <use x="1351.208984" xlink:href="#DejaVuSans-114"/>
     <use x="1390.072266" xlink:href="#DejaVuSans-111"/>
     <use x="1451.253906" xlink:href="#DejaVuSans-112"/>
     <use x="1514.730469" xlink:href="#DejaVuSans-101"/>
     <use x="1576.253906" xlink:href="#DejaVuSans-114"/>
     <use x="1617.367188" xlink:href="#DejaVuSans-116"/>
     <use x="1656.576172" xlink:href="#DejaVuSans-105"/>
     <use x="1684.359375" xlink:href="#DejaVuSans-101"/>
     <use x="1745.882812" xlink:href="#DejaVuSans-115"/>
     <use x="1797.982422" xlink:href="#DejaVuSans-44"/>
    </g>
    <!--  line color, legend position and ylim -->
    <g transform="translate(62.510682 73.2)scale(0.12 -0.12)">
     <defs>
      <path d="M 54.890625 33.015625 
L 54.890625 0 
L 45.90625 0 
L 45.90625 32.71875 
Q 45.90625 40.484375 42.875 44.328125 
Q 39.84375 48.1875 33.796875 48.1875 
Q 26.515625 48.1875 22.3125 43.546875 
Q 18.109375 38.921875 18.109375 30.90625 
L 18.109375 0 
L 9.078125 0 
L 9.078125 54.6875 
L 18.109375 54.6875 
L 18.109375 46.1875 
Q 21.34375 51.125 25.703125 53.5625 
Q 30.078125 56 35.796875 56 
Q 45.21875 56 50.046875 50.171875 
Q 54.890625 44.34375 54.890625 33.015625 
z
" id="DejaVuSans-110"/>
      <path d="M 48.78125 52.59375 
L 48.78125 44.1875 
Q 44.96875 46.296875 41.140625 47.34375 
Q 37.3125 48.390625 33.40625 48.390625 
Q 24.65625 48.390625 19.8125 42.84375 
Q 14.984375 37.3125 14.984375 27.296875 
Q 14.984375 17.28125 19.8125 11.734375 
Q 24.65625 6.203125 33.40625 6.203125 
Q 37.3125 6.203125 41.140625 7.25 
Q 44.96875 8.296875 48.78125 10.40625 
L 48.78125 2.09375 
Q 45.015625 0.34375 40.984375 -0.53125 
Q 36.96875 -1.421875 32.421875 -1.421875 
Q 20.0625 -1.421875 12.78125 6.34375 
Q 5.515625 14.109375 5.515625 27.296875 
Q 5.515625 40.671875 12.859375 48.328125 
Q 20.21875 56 33.015625 56 
Q 37.15625 56 41.109375 55.140625 
Q 45.0625 54.296875 48.78125 52.59375 
z
" id="DejaVuSans-99"/>
     </defs>
     <use xlink:href="#DejaVuSans-32"/>
     <use x="31.787109" xlink:href="#DejaVuSans-108"/>
     <use x="59.570312" xlink:href="#DejaVuSans-105"/>
     <use x="87.353516" xlink:href="#DejaVuSans-110"/>
     <use x="150.732422" xlink:href="#DejaVuSans-101"/>
     <use x="212.255859" xlink:href="#DejaVuSans-32"/>
     <use x="244.042969" xlink:href="#DejaVuSans-99"/>
     <use x="299.023438" xlink:href="#DejaVuSans-111"/>
     <use x="360.205078" xlink:href="#DejaVuSans-108"/>
     <use x="387.988281" xlink:href="#DejaVuSans-111"/>
     <use x="449.169922" xlink:href="#DejaVuSans-114"/>
     <use x="490.283203" xlink:href="#DejaVuSans-44"/>
     <use x="522.070312" xlink:href="#DejaVuSans-32"/>
     <use x="553.857422" xlink:href="#DejaVuSans-108"/>
     <use x="581.640625" xlink:href="#DejaVuSans-101"/>
     <use x="643.164062" xlink:href="#DejaVuSans-103"/>
     <use x="706.640625" xlink:href="#DejaVuSans-101"/>
     <use x="768.164062" xlink:href="#DejaVuSans-110"/>
     <use x="831.542969" xlink:href="#DejaVuSans-100"/>
     <use x="895.019531" xlink:href="#DejaVuSans-32"/>
     <use x="926.806641" xlink:href="#DejaVuSans-112"/>
     <use x="990.283203" xlink:href="#DejaVuSans-111"/>
     <use x="1051.464844" xlink:href="#DejaVuSans-115"/>
     <use x="1103.564453" xlink:href="#DejaVuSans-105"/>
     <use x="1131.347656" xlink:href="#DejaVuSans-116"/>
     <use x="1170.556641" xlink:href="#DejaVuSans-105"/>
     <use x="1198.339844" xlink:href="#DejaVuSans-111"/>
     <use x="1259.521484" xlink:href="#DejaVuSans-110"/>
     <use x="1322.900391" xlink:href="#DejaVuSans-32"/>
     <use x="1354.6875" xlink:href="#DejaVuSans-97"/>
     <use x="1415.966797" xlink:href="#DejaVuSans-110"/>
     <use x="1479.345703" xlink:href="#DejaVuSans-100"/>
     <use x="1542.822266" xlink:href="#DejaVuSans-32"/>
     <use x="1574.609375" xlink:href="#DejaVuSans-121"/>
     <use x="1633.789062" xlink:href="#DejaVuSans-108"/>
     <use x="1661.572266" xlink:href="#DejaVuSans-105"/>
     <use x="1689.355469" xlink:href="#DejaVuSans-109"/>
    </g>
   </g>
   <g id="legend_1">
    <g id="patch_7">
     <path d="M 49.898438 116.55625 
L 151.496875 116.55625 
Q 153.496875 116.55625 153.496875 114.55625 
L 153.496875 86.2 
Q 153.496875 84.2 151.496875 84.2 
L 49.898438 84.2 
Q 47.898438 84.2 47.898438 86.2 
L 47.898438 114.55625 
Q 47.898438 116.55625 49.898438 116.55625 
z
" style="fill:#ffffff;opacity:0.8;stroke:#cccccc;stroke-linejoin:miter;"/>
    </g>
    <g id="line2d_29">
     <path d="M 51.898438 92.298437 
L 71.898438 92.298437 
" style="fill:none;stroke:#1f77b4;stroke-linecap:square;stroke-width:1.5;"/>
    </g>
    <g id="line2d_30"/>
    <g id="text_11">
     <!-- Sin(x) -->
     <g transform="translate(79.898438 95.798437)scale(0.1 -0.1)">
      <defs>
       <path d="M 53.515625 70.515625 
L 53.515625 60.890625 
Q 47.90625 63.578125 42.921875 64.890625 
Q 37.9375 66.21875 33.296875 66.21875 
Q 25.25 66.21875 20.875 63.09375 
Q 16.5 59.96875 16.5 54.203125 
Q 16.5 49.359375 19.40625 46.890625 
Q 22.3125 44.4375 30.421875 42.921875 
L 36.375 41.703125 
Q 47.40625 39.59375 52.65625 34.296875 
Q 57.90625 29 57.90625 20.125 
Q 57.90625 9.515625 50.796875 4.046875 
Q 43.703125 -1.421875 29.984375 -1.421875 
Q 24.8125 -1.421875 18.96875 -0.25 
Q 13.140625 0.921875 6.890625 3.21875 
L 6.890625 13.375 
Q 12.890625 10.015625 18.65625 8.296875 
Q 24.421875 6.59375 29.984375 6.59375 
Q 38.421875 6.59375 43.015625 9.90625 
Q 47.609375 13.234375 47.609375 19.390625 
Q 47.609375 24.75 44.3125 27.78125 
Q 41.015625 30.8125 33.5 32.328125 
L 27.484375 33.5 
Q 16.453125 35.6875 11.515625 40.375 
Q 6.59375 45.0625 6.59375 53.421875 
Q 6.59375 63.09375 13.40625 68.65625 
Q 20.21875 74.21875 32.171875 74.21875 
Q 37.3125 74.21875 42.625 73.28125 
Q 47.953125 72.359375 53.515625 70.515625 
z
" id="DejaVuSans-83"/>
      </defs>
      <use xlink:href="#DejaVuSans-83"/>
      <use x="63.476562" xlink:href="#DejaVuSans-105"/>
      <use x="91.259766" xlink:href="#DejaVuSans-110"/>
      <use x="154.638672" xlink:href="#DejaVuSans-40"/>
      <use x="193.652344" xlink:href="#DejaVuSans-120"/>
      <use x="252.832031" xlink:href="#DejaVuSans-41"/>
     </g>
    </g>
    <g id="line2d_31">
     <path d="M 51.898438 106.976562 
L 71.898438 106.976562 
" style="fill:none;stroke:#ff0000;stroke-linecap:square;stroke-width:1.5;"/>
    </g>
    <g id="line2d_32">
     <g>
      <use style="fill:#ff0000;stroke:#ff0000;" x="61.898438" xlink:href="#mc4a638f5c4" y="106.976562"/>
     </g>
    </g>
    <g id="text_12">
     <!-- Sin(x)+Cos(x) -->
     <g transform="translate(79.898438 110.476562)scale(0.1 -0.1)">
      <defs>
       <path d="M 46 62.703125 
L 46 35.5 
L 73.1875 35.5 
L 73.1875 27.203125 
L 46 27.203125 
L 46 0 
L 37.796875 0 
L 37.796875 27.203125 
L 10.59375 27.203125 
L 10.59375 35.5 
L 37.796875 35.5 
L 37.796875 62.703125 
z
" id="DejaVuSans-43"/>
       <path d="M 64.40625 67.28125 
L 64.40625 56.890625 
Q 59.421875 61.53125 53.78125 63.8125 
Q 48.140625 66.109375 41.796875 66.109375 
Q 29.296875 66.109375 22.65625 58.46875 
Q 16.015625 50.828125 16.015625 36.375 
Q 16.015625 21.96875 22.65625 14.328125 
Q 29.296875 6.6875 41.796875 6.6875 
Q 48.140625 6.6875 53.78125 8.984375 
Q 59.421875 11.28125 64.40625 15.921875 
L 64.40625 5.609375 
Q 59.234375 2.09375 53.4375 0.328125 
Q 47.65625 -1.421875 41.21875 -1.421875 
Q 24.65625 -1.421875 15.125 8.703125 
Q 5.609375 18.84375 5.609375 36.375 
Q 5.609375 53.953125 15.125 64.078125 
Q 24.65625 74.21875 41.21875 74.21875 
Q 47.75 74.21875 53.53125 72.484375 
Q 59.328125 70.75 64.40625 67.28125 
z
" id="DejaVuSans-67"/>
      </defs>
      <use xlink:href="#DejaVuSans-83"/>
      <use x="63.476562" xlink:href="#DejaVuSans-105"/>
      <use x="91.259766" xlink:href="#DejaVuSans-110"/>
      <use x="154.638672" xlink:href="#DejaVuSans-40"/>
      <use x="193.652344" xlink:href="#DejaVuSans-120"/>
      <use x="252.832031" xlink:href="#DejaVuSans-41"/>
      <use x="291.845703" xlink:href="#DejaVuSans-43"/>
      <use x="375.634766" xlink:href="#DejaVuSans-67"/>
      <use x="445.458984" xlink:href="#DejaVuSans-111"/>
      <use x="506.640625" xlink:href="#DejaVuSans-115"/>
      <use x="558.740234" xlink:href="#DejaVuSans-40"/>
      <use x="597.753906" xlink:href="#DejaVuSans-120"/>
      <use x="656.933594" xlink:href="#DejaVuSans-41"/>
     </g>
    </g>
   </g>
  </g>
  <g id="axes_2">
   <g id="patch_8">
    <path d="M 347.262074 326.290909 
L 600.898437 326.290909 
L 600.898437 79.2 
L 347.262074 79.2 
z
" style="fill:#ffffff;"/>
   </g>
   <g id="matplotlib.axis_3">
    <g id="xtick_7">
     <g id="line2d_33">
      <g>
       <use style="stroke:#000000;stroke-width:0.8;" x="358.790999" xlink:href="#m13a832ce12" y="326.290909"/>
      </g>
     </g>
    </g>
    <g id="xtick_8">
     <g id="line2d_34">
      <g>
       <use style="stroke:#000000;stroke-width:0.8;" x="405.372517" xlink:href="#m13a832ce12" y="326.290909"/>
      </g>
     </g>
    </g>
    <g id="xtick_9">
     <g id="line2d_35">
      <g>
       <use style="stroke:#000000;stroke-width:0.8;" x="451.954035" xlink:href="#m13a832ce12" y="326.290909"/>
      </g>
     </g>
    </g>
    <g id="xtick_10">
     <g id="line2d_36">
      <g>
       <use style="stroke:#000000;stroke-width:0.8;" x="498.535552" xlink:href="#m13a832ce12" y="326.290909"/>
      </g>
     </g>
    </g>
    <g id="xtick_11">
     <g id="line2d_37">
      <g>
       <use style="stroke:#000000;stroke-width:0.8;" x="545.11707" xlink:href="#m13a832ce12" y="326.290909"/>
      </g>
     </g>
    </g>
    <g id="xtick_12">
     <g id="line2d_38">
      <g>
       <use style="stroke:#000000;stroke-width:0.8;" x="591.698588" xlink:href="#m13a832ce12" y="326.290909"/>
      </g>
     </g>
    </g>
    <g id="text_13">
     <!-- x_label1 -->
     <g transform="translate(453.346662 337.889347)scale(0.1 -0.1)">
      <use xlink:href="#DejaVuSans-120"/>
      <use x="59.179688" xlink:href="#DejaVuSans-95"/>
      <use x="109.179688" xlink:href="#DejaVuSans-108"/>
      <use x="136.962891" xlink:href="#DejaVuSans-97"/>
      <use x="198.242188" xlink:href="#DejaVuSans-98"/>
      <use x="261.71875" xlink:href="#DejaVuSans-101"/>
      <use x="323.242188" xlink:href="#DejaVuSans-108"/>
      <use x="351.025391" xlink:href="#DejaVuSans-49"/>
     </g>
    </g>
   </g>
   <g id="matplotlib.axis_4">
    <g id="ytick_8">
     <g id="line2d_39">
      <g>
       <use style="stroke:#000000;stroke-width:0.8;" x="347.262074" xlink:href="#m1b1b709968" y="326.290909"/>
      </g>
     </g>
    </g>
    <g id="ytick_9">
     <g id="line2d_40">
      <g>
       <use style="stroke:#000000;stroke-width:0.8;" x="347.262074" xlink:href="#m1b1b709968" y="285.109091"/>
      </g>
     </g>
    </g>
    <g id="ytick_10">
     <g id="line2d_41">
      <g>
       <use style="stroke:#000000;stroke-width:0.8;" x="347.262074" xlink:href="#m1b1b709968" y="243.927273"/>
      </g>
     </g>
    </g>
    <g id="ytick_11">
     <g id="line2d_42">
      <g>
       <use style="stroke:#000000;stroke-width:0.8;" x="347.262074" xlink:href="#m1b1b709968" y="202.745455"/>
      </g>
     </g>
    </g>
    <g id="ytick_12">
     <g id="line2d_43">
      <g>
       <use style="stroke:#000000;stroke-width:0.8;" x="347.262074" xlink:href="#m1b1b709968" y="161.563636"/>
      </g>
     </g>
    </g>
    <g id="ytick_13">
     <g id="line2d_44">
      <g>
       <use style="stroke:#000000;stroke-width:0.8;" x="347.262074" xlink:href="#m1b1b709968" y="120.381818"/>
      </g>
     </g>
    </g>
    <g id="ytick_14">
     <g id="line2d_45">
      <g>
       <use style="stroke:#000000;stroke-width:0.8;" x="347.262074" xlink:href="#m1b1b709968" y="79.2"/>
      </g>
     </g>
    </g>
    <g id="text_14">
     <!-- y_label1 -->
     <g transform="translate(340.904261 223.479048)rotate(-90)scale(0.1 -0.1)">
      <use xlink:href="#DejaVuSans-121"/>
      <use x="59.179688" xlink:href="#DejaVuSans-95"/>
      <use x="109.179688" xlink:href="#DejaVuSans-108"/>
      <use x="136.962891" xlink:href="#DejaVuSans-97"/>
      <use x="198.242188" xlink:href="#DejaVuSans-98"/>
      <use x="261.71875" xlink:href="#DejaVuSans-101"/>
      <use x="323.242188" xlink:href="#DejaVuSans-108"/>
      <use x="351.025391" xlink:href="#DejaVuSans-49"/>
     </g>
    </g>
   </g>
   <g id="line2d_46">
    <path clip-path="url(#p3699d0a3fb)" d="M 358.790999 161.563636 
L 361.120075 180.494823 
L 363.449151 219.883138 
L 365.778227 243.515146 
L 368.107303 229.663687 
L 370.436379 191.06373 
L 372.765455 163.203896 
L 375.094531 171.698389 
L 377.423607 208.73741 
L 379.752682 240.267455 
L 382.081758 237.299946 
L 384.410834 202.563196 
L 386.73991 167.994014 
L 389.068986 165.375146 
L 391.398062 197.114367 
L 393.727138 234.030784 
L 396.056214 242.183613 
L 398.385289 214.077181 
L 400.714365 175.552412 
L 403.043441 162.028801 
L 405.372517 185.939893 
L 407.701593 225.301941 
L 410.030669 243.925659 
L 412.359745 224.688487 
L 414.688821 185.276992 
L 417.017897 161.925921 
L 419.346972 176.104141 
L 421.676048 214.776262 
L 424.005124 242.387314 
L 426.3342 233.551824 
L 428.663276 196.393099 
L 430.992352 165.074701 
L 433.321428 168.39062 
L 435.650504 203.292215 
L 437.979579 237.691121 
L 440.308655 239.961143 
L 442.637731 208.015232 
L 444.966807 171.224312 
L 447.295883 163.413785 
L 449.624959 191.764614 
L 451.954035 230.211177 
L 454.283111 243.405881 
L 456.612187 219.217577 
L 458.941262 179.884879 
L 461.270338 161.570089 
L 463.599414 181.11174 
L 465.92849 220.543328 
L 468.257566 243.611633 
L 470.586642 229.107762 
L 472.915718 190.366507 
L 475.244794 163.006399 
L 477.57387 172.182195 
L 479.902945 209.457711 
L 482.232021 240.562009 
L 484.561097 236.897941 
L 486.890173 201.834234 
L 489.219249 167.608299 
L 491.548325 165.687302 
L 493.877401 197.8374 
L 496.206477 234.49994 
L 498.535552 241.967553 
L 500.864628 213.374549 
L 503.193704 175.009205 
L 505.52278 162.144441 
L 507.851856 186.608061 
L 510.180932 225.908327 
L 512.510008 243.912754 
L 514.839084 224.068156 
L 517.16816 184.619565 
L 519.497235 161.835833 
L 521.826311 176.664218 
L 524.155387 215.471572 
L 526.484463 242.578592 
L 528.813539 233.063209 
L 531.142615 195.673822 
L 533.471691 164.786061 
L 535.800767 168.797992 
L 538.129842 204.021063 
L 540.458918 238.071346 
L 542.787994 239.643167 
L 545.11707 207.291402 
L 547.446146 170.760114 
L 549.775222 163.636 
L 552.104298 192.468939 
L 554.433374 230.750059 
L 556.76245 243.283874 
L 559.091525 218.546854 
L 561.420601 179.2821 
L 563.749677 161.589446 
L 566.078753 181.735436 
L 568.407829 221.197941 
L 570.736905 243.695315 
L 573.065981 228.543576 
L 575.395057 189.673163 
L 577.724132 162.821355 
L 580.053208 172.67558 
L 582.382284 210.175909 
L 584.71136 240.844712 
L 587.040436 236.485234 
L 589.369512 201.105558 
" style="fill:none;stroke:#000000;stroke-linecap:square;stroke-width:4;"/>
   </g>
   <g id="patch_9">
    <path d="M 347.262074 326.290909 
L 347.262074 79.2 
" style="fill:none;stroke:#000000;stroke-linecap:square;stroke-linejoin:miter;stroke-width:0.8;"/>
   </g>
   <g id="patch_10">
    <path d="M 600.898437 326.290909 
L 600.898437 79.2 
" style="fill:none;stroke:#000000;stroke-linecap:square;stroke-linejoin:miter;stroke-width:0.8;"/>
   </g>
   <g id="patch_11">
    <path d="M 347.262074 326.290909 
L 600.898437 326.290909 
" style="fill:none;stroke:#000000;stroke-linecap:square;stroke-linejoin:miter;stroke-width:0.8;"/>
   </g>
   <g id="patch_12">
    <path d="M 347.262074 79.2 
L 600.898437 79.2 
" style="fill:none;stroke:#000000;stroke-linecap:square;stroke-linejoin:miter;stroke-width:0.8;"/>
   </g>
   <g id="text_15">
    <!-- (0,1) linewidth and color -->
    <g transform="translate(400.706818 73.2)scale(0.12 -0.12)">
     <defs>
      <path d="M 4.203125 54.6875 
L 13.1875 54.6875 
L 24.421875 12.015625 
L 35.59375 54.6875 
L 46.1875 54.6875 
L 57.421875 12.015625 
L 68.609375 54.6875 
L 77.59375 54.6875 
L 63.28125 0 
L 52.6875 0 
L 40.921875 44.828125 
L 29.109375 0 
L 18.5 0 
z
" id="DejaVuSans-119"/>
      <path d="M 54.890625 33.015625 
L 54.890625 0 
L 45.90625 0 
L 45.90625 32.71875 
Q 45.90625 40.484375 42.875 44.328125 
Q 39.84375 48.1875 33.796875 48.1875 
Q 26.515625 48.1875 22.3125 43.546875 
Q 18.109375 38.921875 18.109375 30.90625 
L 18.109375 0 
L 9.078125 0 
L 9.078125 75.984375 
L 18.109375 75.984375 
L 18.109375 46.1875 
Q 21.34375 51.125 25.703125 53.5625 
Q 30.078125 56 35.796875 56 
Q 45.21875 56 50.046875 50.171875 
Q 54.890625 44.34375 54.890625 33.015625 
z
" id="DejaVuSans-104"/>
     </defs>
     <use xlink:href="#DejaVuSans-40"/>
     <use x="39.013672" xlink:href="#DejaVuSans-48"/>
     <use x="102.636719" xlink:href="#DejaVuSans-44"/>
     <use x="134.423828" xlink:href="#DejaVuSans-49"/>
     <use x="198.046875" xlink:href="#DejaVuSans-41"/>
     <use x="237.060547" xlink:href="#DejaVuSans-32"/>
     <use x="268.847656" xlink:href="#DejaVuSans-108"/>
     <use x="296.630859" xlink:href="#DejaVuSans-105"/>
     <use x="324.414062" xlink:href="#DejaVuSans-110"/>
     <use x="387.792969" xlink:href="#DejaVuSans-101"/>
     <use x="449.316406" xlink:href="#DejaVuSans-119"/>
     <use x="531.103516" xlink:href="#DejaVuSans-105"/>
     <use x="558.886719" xlink:href="#DejaVuSans-100"/>
     <use x="622.363281" xlink:href="#DejaVuSans-116"/>
     <use x="661.572266" xlink:href="#DejaVuSans-104"/>
     <use x="724.951172" xlink:href="#DejaVuSans-32"/>
     <use x="756.738281" xlink:href="#DejaVuSans-97"/>
     <use x="818.017578" xlink:href="#DejaVuSans-110"/>
     <use x="881.396484" xlink:href="#DejaVuSans-100"/>
     <use x="944.873047" xlink:href="#DejaVuSans-32"/>
     <use x="976.660156" xlink:href="#DejaVuSans-99"/>
     <use x="1031.640625" xlink:href="#DejaVuSans-111"/>
     <use x="1092.822266" xlink:href="#DejaVuSans-108"/>
     <use x="1120.605469" xlink:href="#DejaVuSans-111"/>
     <use x="1181.787109" xlink:href="#DejaVuSans-114"/>
    </g>
   </g>
  </g>
  <g id="axes_3">
   <g id="patch_13">
    <path d="M 42.898438 622.8 
L 296.534801 622.8 
L 296.534801 375.709091 
L 42.898438 375.709091 
z
" style="fill:#ffffff;"/>
   </g>
   <g id="matplotlib.axis_5">
    <g id="xtick_13">
     <g id="line2d_47">
      <g>
       <use style="stroke:#000000;stroke-width:0.8;" x="54.427363" xlink:href="#m13a832ce12" y="622.8"/>
      </g>
     </g>
     <g id="text_16">
      <!-- 1 -->
      <g transform="translate(54.129052 639.671874)rotate(-45)scale(0.1 -0.1)">
       <use xlink:href="#DejaVuSans-49"/>
      </g>
     </g>
    </g>
    <g id="xtick_14">
     <g id="line2d_48">
      <g>
       <use style="stroke:#000000;stroke-width:0.8;" x="101.008881" xlink:href="#m13a832ce12" y="622.8"/>
      </g>
     </g>
     <g id="text_17">
      <!-- 2 -->
      <g transform="translate(100.71057 639.671874)rotate(-45)scale(0.1 -0.1)">
       <use xlink:href="#DejaVuSans-50"/>
      </g>
     </g>
    </g>
    <g id="xtick_15">
     <g id="line2d_49">
      <g>
       <use style="stroke:#000000;stroke-width:0.8;" x="147.590398" xlink:href="#m13a832ce12" y="622.8"/>
      </g>
     </g>
     <g id="text_18">
      <!-- 3 -->
      <g transform="translate(147.292088 639.671874)rotate(-45)scale(0.1 -0.1)">
       <use xlink:href="#DejaVuSans-51"/>
      </g>
     </g>
    </g>
    <g id="xtick_16">
     <g id="line2d_50">
      <g>
       <use style="stroke:#000000;stroke-width:0.8;" x="194.171916" xlink:href="#m13a832ce12" y="622.8"/>
      </g>
     </g>
     <g id="text_19">
      <!-- 4 -->
      <g transform="translate(193.873605 639.671874)rotate(-45)scale(0.1 -0.1)">
       <defs>
        <path d="M 37.796875 64.3125 
L 12.890625 25.390625 
L 37.796875 25.390625 
z
M 35.203125 72.90625 
L 47.609375 72.90625 
L 47.609375 25.390625 
L 58.015625 25.390625 
L 58.015625 17.1875 
L 47.609375 17.1875 
L 47.609375 0 
L 37.796875 0 
L 37.796875 17.1875 
L 4.890625 17.1875 
L 4.890625 26.703125 
z
" id="DejaVuSans-52"/>
       </defs>
       <use xlink:href="#DejaVuSans-52"/>
      </g>
     </g>
    </g>
    <g id="xtick_17">
     <g id="line2d_51">
      <g>
       <use style="stroke:#000000;stroke-width:0.8;" x="240.753434" xlink:href="#m13a832ce12" y="622.8"/>
      </g>
     </g>
     <g id="text_20">
      <!-- 5 -->
      <g transform="translate(240.455123 639.671874)rotate(-45)scale(0.1 -0.1)">
       <defs>
        <path d="M 10.796875 72.90625 
L 49.515625 72.90625 
L 49.515625 64.59375 
L 19.828125 64.59375 
L 19.828125 46.734375 
Q 21.96875 47.46875 24.109375 47.828125 
Q 26.265625 48.1875 28.421875 48.1875 
Q 40.625 48.1875 47.75 41.5 
Q 54.890625 34.8125 54.890625 23.390625 
Q 54.890625 11.625 47.5625 5.09375 
Q 40.234375 -1.421875 26.90625 -1.421875 
Q 22.3125 -1.421875 17.546875 -0.640625 
Q 12.796875 0.140625 7.71875 1.703125 
L 7.71875 11.625 
Q 12.109375 9.234375 16.796875 8.0625 
Q 21.484375 6.890625 26.703125 6.890625 
Q 35.15625 6.890625 40.078125 11.328125 
Q 45.015625 15.765625 45.015625 23.390625 
Q 45.015625 31 40.078125 35.4375 
Q 35.15625 39.890625 26.703125 39.890625 
Q 22.75 39.890625 18.8125 39.015625 
Q 14.890625 38.140625 10.796875 36.28125 
z
" id="DejaVuSans-53"/>
       </defs>
       <use xlink:href="#DejaVuSans-53"/>
      </g>
     </g>
    </g>
    <g id="xtick_18">
     <g id="line2d_52">
      <g>
       <use style="stroke:#000000;stroke-width:0.8;" x="287.334951" xlink:href="#m13a832ce12" y="622.8"/>
      </g>
     </g>
     <g id="text_21">
      <!-- 6 -->
      <g transform="translate(287.036641 639.671874)rotate(-45)scale(0.1 -0.1)">
       <defs>
        <path d="M 33.015625 40.375 
Q 26.375 40.375 22.484375 35.828125 
Q 18.609375 31.296875 18.609375 23.390625 
Q 18.609375 15.53125 22.484375 10.953125 
Q 26.375 6.390625 33.015625 6.390625 
Q 39.65625 6.390625 43.53125 10.953125 
Q 47.40625 15.53125 47.40625 23.390625 
Q 47.40625 31.296875 43.53125 35.828125 
Q 39.65625 40.375 33.015625 40.375 
z
M 52.59375 71.296875 
L 52.59375 62.3125 
Q 48.875 64.0625 45.09375 64.984375 
Q 41.3125 65.921875 37.59375 65.921875 
Q 27.828125 65.921875 22.671875 59.328125 
Q 17.53125 52.734375 16.796875 39.40625 
Q 19.671875 43.65625 24.015625 45.921875 
Q 28.375 48.1875 33.59375 48.1875 
Q 44.578125 48.1875 50.953125 41.515625 
Q 57.328125 34.859375 57.328125 23.390625 
Q 57.328125 12.15625 50.6875 5.359375 
Q 44.046875 -1.421875 33.015625 -1.421875 
Q 20.359375 -1.421875 13.671875 8.265625 
Q 6.984375 17.96875 6.984375 36.375 
Q 6.984375 53.65625 15.1875 63.9375 
Q 23.390625 74.21875 37.203125 74.21875 
Q 40.921875 74.21875 44.703125 73.484375 
Q 48.484375 72.75 52.59375 71.296875 
z
" id="DejaVuSans-54"/>
       </defs>
       <use xlink:href="#DejaVuSans-54"/>
      </g>
     </g>
    </g>
    <g id="text_22">
     <!-- x_label2 -->
     <g transform="translate(148.983026 652.740872)scale(0.1 -0.1)">
      <use xlink:href="#DejaVuSans-120"/>
      <use x="59.179688" xlink:href="#DejaVuSans-95"/>
      <use x="109.179688" xlink:href="#DejaVuSans-108"/>
      <use x="136.962891" xlink:href="#DejaVuSans-97"/>
      <use x="198.242188" xlink:href="#DejaVuSans-98"/>
      <use x="261.71875" xlink:href="#DejaVuSans-101"/>
      <use x="323.242188" xlink:href="#DejaVuSans-108"/>
      <use x="351.025391" xlink:href="#DejaVuSans-50"/>
     </g>
    </g>
   </g>
   <g id="matplotlib.axis_6">
    <g id="ytick_15">
     <g id="line2d_53">
      <g>
       <use style="stroke:#000000;stroke-width:0.8;" x="42.898438" xlink:href="#m1b1b709968" y="622.8"/>
      </g>
     </g>
     <g id="text_23">
      <!-- −3 -->
      <g transform="translate(21.15625 626.599219)scale(0.1 -0.1)">
       <use xlink:href="#DejaVuSans-8722"/>
       <use x="83.789062" xlink:href="#DejaVuSans-51"/>
      </g>
     </g>
    </g>
    <g id="ytick_16">
     <g id="line2d_54">
      <g>
       <use style="stroke:#000000;stroke-width:0.8;" x="42.898438" xlink:href="#m1b1b709968" y="581.618182"/>
      </g>
     </g>
     <g id="text_24">
      <!-- −2 -->
      <g transform="translate(21.15625 585.417401)scale(0.1 -0.1)">
       <use xlink:href="#DejaVuSans-8722"/>
       <use x="83.789062" xlink:href="#DejaVuSans-50"/>
      </g>
     </g>
    </g>
    <g id="ytick_17">
     <g id="line2d_55">
      <g>
       <use style="stroke:#000000;stroke-width:0.8;" x="42.898438" xlink:href="#m1b1b709968" y="540.436364"/>
      </g>
     </g>
     <g id="text_25">
      <!-- −1 -->
      <g transform="translate(21.15625 544.235582)scale(0.1 -0.1)">
       <use xlink:href="#DejaVuSans-8722"/>
       <use x="83.789062" xlink:href="#DejaVuSans-49"/>
      </g>
     </g>
    </g>
    <g id="ytick_18">
     <g id="line2d_56">
      <g>
       <use style="stroke:#000000;stroke-width:0.8;" x="42.898438" xlink:href="#m1b1b709968" y="499.254545"/>
      </g>
     </g>
     <g id="text_26">
      <!-- 0 -->
      <g transform="translate(29.535938 503.053764)scale(0.1 -0.1)">
       <use xlink:href="#DejaVuSans-48"/>
      </g>
     </g>
    </g>
    <g id="ytick_19">
     <g id="line2d_57">
      <g>
       <use style="stroke:#000000;stroke-width:0.8;" x="42.898438" xlink:href="#m1b1b709968" y="458.072727"/>
      </g>
     </g>
     <g id="text_27">
      <!-- 1 -->
      <g transform="translate(29.535938 461.871946)scale(0.1 -0.1)">
       <use xlink:href="#DejaVuSans-49"/>
      </g>
     </g>
    </g>
    <g id="ytick_20">
     <g id="line2d_58">
      <g>
       <use style="stroke:#000000;stroke-width:0.8;" x="42.898438" xlink:href="#m1b1b709968" y="416.890909"/>
      </g>
     </g>
     <g id="text_28">
      <!-- 2 -->
      <g transform="translate(29.535938 420.690128)scale(0.1 -0.1)">
       <use xlink:href="#DejaVuSans-50"/>
      </g>
     </g>
    </g>
    <g id="ytick_21">
     <g id="line2d_59">
      <g>
       <use style="stroke:#000000;stroke-width:0.8;" x="42.898438" xlink:href="#m1b1b709968" y="375.709091"/>
      </g>
     </g>
     <g id="text_29">
      <!-- 3 -->
      <g transform="translate(29.535938 379.50831)scale(0.1 -0.1)">
       <use xlink:href="#DejaVuSans-51"/>
      </g>
     </g>
    </g>
    <g id="text_30">
     <!-- y_label2 -->
     <g transform="translate(14.798438 519.988139)rotate(-90)scale(0.1 -0.1)">
      <use xlink:href="#DejaVuSans-121"/>
      <use x="59.179688" xlink:href="#DejaVuSans-95"/>
      <use x="109.179688" xlink:href="#DejaVuSans-108"/>
      <use x="136.962891" xlink:href="#DejaVuSans-97"/>
      <use x="198.242188" xlink:href="#DejaVuSans-98"/>
      <use x="261.71875" xlink:href="#DejaVuSans-101"/>
      <use x="323.242188" xlink:href="#DejaVuSans-108"/>
      <use x="351.025391" xlink:href="#DejaVuSans-50"/>
     </g>
    </g>
   </g>
   <g id="line2d_60">
    <path clip-path="url(#p80c4308c3f)" d="M 54.427363 458.072727 
L 56.756439 442.350609 
L 59.085515 478.945708 
L 61.414591 534.212658 
L 63.743667 557.339281 
L 66.072743 527.063066 
L 68.401818 471.219826 
L 70.730894 441.151577 
L 73.05997 464.50293 
L 75.389046 519.804758 
L 77.718122 556.212815 
L 80.047198 540.253702 
L 82.376274 486.600154 
L 84.70535 444.580995 
L 87.034425 452.828446 
L 89.363501 503.759839 
L 91.692577 550.549086 
L 94.021653 550.178369 
L 96.350729 502.988523 
L 98.679805 452.365676 
L 101.008881 444.852239 
L 103.337957 487.356032 
L 105.667033 540.799263 
L 107.996108 556.046473 
L 110.325184 519.079446 
L 112.65426 463.885497 
L 114.983336 441.209688 
L 117.312412 471.900053 
L 119.641488 527.740012 
L 121.970564 557.390565 
L 124.29964 533.591129 
L 126.628715 478.222797 
L 128.957791 442.190957 
L 131.286867 458.623118 
L 133.615943 512.411625 
L 135.945019 554.103574 
L 138.274095 545.367579 
L 140.603171 494.235474 
L 142.932247 447.717879 
L 145.261323 448.582858 
L 147.590398 496.035153 
L 149.919474 546.447342 
L 152.24855 553.470692 
L 154.577626 510.647967 
L 156.906702 457.350183 
L 159.235778 442.579077 
L 161.564854 479.915135 
L 163.89393 535.031758 
L 166.223005 557.254977 
L 168.552081 526.152866 
L 170.881157 470.320563 
L 173.210233 441.09003 
L 175.539309 465.335684 
L 177.868385 520.766183 
L 180.197461 556.418981 
L 182.526537 539.515061 
L 184.855613 485.595809 
L 187.184688 444.234336 
L 189.513764 453.45819 
L 191.84284 504.787002 
L 194.171916 551.029299 
L 196.500992 549.670126 
L 198.830068 501.959101 
L 201.159144 451.76152 
L 203.48822 445.228807 
L 205.817296 488.367109 
L 208.146371 541.51527 
L 210.475447 555.809115 
L 212.804523 518.10695 
L 215.133599 463.071971 
L 217.462675 441.303084 
L 219.791751 472.814503 
L 222.120827 528.634776 
L 224.449903 557.443 
L 226.778978 532.753027 
L 229.108054 477.264705 
L 231.43713 441.993741 
L 233.766206 459.368096 
L 236.095282 513.413869 
L 238.424358 554.441625 
L 240.753434 544.730635 
L 243.08251 493.209137 
L 245.411586 447.24576 
L 247.740661 449.099021 
L 250.069737 497.065039 
L 252.398813 547.04408 
L 254.727889 553.085643 
L 257.056965 509.635144 
L 259.386041 456.64077 
L 261.715117 442.825305 
L 264.044193 480.890624 
L 266.373268 535.839647 
L 268.702344 557.152497 
L 271.03142 525.234237 
L 273.360496 469.430369 
L 275.689572 441.046711 
L 278.018648 466.179068 
L 280.347724 521.720866 
L 282.6768 556.607233 
L 285.005876 538.763803 
" style="fill:none;stroke:#1f77b4;stroke-linecap:square;stroke-width:1.5;"/>
   </g>
   <g id="patch_14">
    <path d="M 42.898438 622.8 
L 42.898438 375.709091 
" style="fill:none;stroke:#000000;stroke-linecap:square;stroke-linejoin:miter;stroke-width:0.8;"/>
   </g>
   <g id="patch_15">
    <path d="M 296.534801 622.8 
L 296.534801 375.709091 
" style="fill:none;stroke:#000000;stroke-linecap:square;stroke-linejoin:miter;stroke-width:0.8;"/>
   </g>
   <g id="patch_16">
    <path d="M 42.898438 622.8 
L 296.534801 622.8 
" style="fill:none;stroke:#000000;stroke-linecap:square;stroke-linejoin:miter;stroke-width:0.8;"/>
   </g>
   <g id="patch_17">
    <path d="M 42.898438 375.709091 
L 296.534801 375.709091 
" style="fill:none;stroke:#000000;stroke-linecap:square;stroke-linejoin:miter;stroke-width:0.8;"/>
   </g>
   <g id="text_31">
    <!-- (1,0) -->
    <g transform="translate(155.492869 369.709091)scale(0.12 -0.12)">
     <use xlink:href="#DejaVuSans-40"/>
     <use x="39.013672" xlink:href="#DejaVuSans-49"/>
     <use x="102.636719" xlink:href="#DejaVuSans-44"/>
     <use x="134.423828" xlink:href="#DejaVuSans-48"/>
     <use x="198.046875" xlink:href="#DejaVuSans-41"/>
    </g>
   </g>
  </g>
  <g id="axes_4">
   <g id="patch_18">
    <path d="M 347.262074 622.8 
L 600.898437 622.8 
L 600.898437 375.709091 
L 347.262074 375.709091 
z
" style="fill:#ffffff;"/>
   </g>
   <g id="matplotlib.axis_7">
    <g id="xtick_19">
     <g id="line2d_61">
      <g>
       <use style="stroke:#000000;stroke-width:0.8;" x="358.790999" xlink:href="#m13a832ce12" y="622.8"/>
      </g>
     </g>
     <g id="text_32">
      <!-- 1 -->
      <g transform="translate(358.492689 639.671874)rotate(-45)scale(0.1 -0.1)">
       <use xlink:href="#DejaVuSans-49"/>
      </g>
     </g>
    </g>
    <g id="xtick_20">
     <g id="line2d_62">
      <g>
       <use style="stroke:#000000;stroke-width:0.8;" x="405.372517" xlink:href="#m13a832ce12" y="622.8"/>
      </g>
     </g>
     <g id="text_33">
      <!-- 2 -->
      <g transform="translate(405.074206 639.671874)rotate(-45)scale(0.1 -0.1)">
       <use xlink:href="#DejaVuSans-50"/>
      </g>
     </g>
    </g>
    <g id="xtick_21">
     <g id="line2d_63">
      <g>
       <use style="stroke:#000000;stroke-width:0.8;" x="451.954035" xlink:href="#m13a832ce12" y="622.8"/>
      </g>
     </g>
     <g id="text_34">
      <!-- 3 -->
      <g transform="translate(451.655724 639.671874)rotate(-45)scale(0.1 -0.1)">
       <use xlink:href="#DejaVuSans-51"/>
      </g>
     </g>
    </g>
    <g id="xtick_22">
     <g id="line2d_64">
      <g>
       <use style="stroke:#000000;stroke-width:0.8;" x="498.535552" xlink:href="#m13a832ce12" y="622.8"/>
      </g>
     </g>
     <g id="text_35">
      <!-- 4 -->
      <g transform="translate(498.237242 639.671874)rotate(-45)scale(0.1 -0.1)">
       <use xlink:href="#DejaVuSans-52"/>
      </g>
     </g>
    </g>
    <g id="xtick_23">
     <g id="line2d_65">
      <g>
       <use style="stroke:#000000;stroke-width:0.8;" x="545.11707" xlink:href="#m13a832ce12" y="622.8"/>
      </g>
     </g>
     <g id="text_36">
      <!-- 5 -->
      <g transform="translate(544.818759 639.671874)rotate(-45)scale(0.1 -0.1)">
       <use xlink:href="#DejaVuSans-53"/>
      </g>
     </g>
    </g>
    <g id="xtick_24">
     <g id="line2d_66">
      <g>
       <use style="stroke:#000000;stroke-width:0.8;" x="591.698588" xlink:href="#m13a832ce12" y="622.8"/>
      </g>
     </g>
     <g id="text_37">
      <!-- 6 -->
      <g transform="translate(591.400277 639.671874)rotate(-45)scale(0.1 -0.1)">
       <use xlink:href="#DejaVuSans-54"/>
      </g>
     </g>
    </g>
    <g id="text_38">
     <!-- x_label3 -->
     <g transform="translate(453.346662 652.740872)scale(0.1 -0.1)">
      <use xlink:href="#DejaVuSans-120"/>
      <use x="59.179688" xlink:href="#DejaVuSans-95"/>
      <use x="109.179688" xlink:href="#DejaVuSans-108"/>
      <use x="136.962891" xlink:href="#DejaVuSans-97"/>
      <use x="198.242188" xlink:href="#DejaVuSans-98"/>
      <use x="261.71875" xlink:href="#DejaVuSans-101"/>
      <use x="323.242188" xlink:href="#DejaVuSans-108"/>
      <use x="351.025391" xlink:href="#DejaVuSans-51"/>
     </g>
    </g>
   </g>
   <g id="matplotlib.axis_8">
    <g id="ytick_22">
     <g id="line2d_67">
      <g>
       <use style="stroke:#000000;stroke-width:0.8;" x="347.262074" xlink:href="#m1b1b709968" y="622.8"/>
      </g>
     </g>
    </g>
    <g id="ytick_23">
     <g id="line2d_68">
      <g>
       <use style="stroke:#000000;stroke-width:0.8;" x="347.262074" xlink:href="#m1b1b709968" y="581.618182"/>
      </g>
     </g>
    </g>
    <g id="ytick_24">
     <g id="line2d_69">
      <g>
       <use style="stroke:#000000;stroke-width:0.8;" x="347.262074" xlink:href="#m1b1b709968" y="540.436364"/>
      </g>
     </g>
    </g>
    <g id="ytick_25">
     <g id="line2d_70">
      <g>
       <use style="stroke:#000000;stroke-width:0.8;" x="347.262074" xlink:href="#m1b1b709968" y="499.254545"/>
      </g>
     </g>
    </g>
    <g id="ytick_26">
     <g id="line2d_71">
      <g>
       <use style="stroke:#000000;stroke-width:0.8;" x="347.262074" xlink:href="#m1b1b709968" y="458.072727"/>
      </g>
     </g>
    </g>
    <g id="ytick_27">
     <g id="line2d_72">
      <g>
       <use style="stroke:#000000;stroke-width:0.8;" x="347.262074" xlink:href="#m1b1b709968" y="416.890909"/>
      </g>
     </g>
    </g>
    <g id="ytick_28">
     <g id="line2d_73">
      <g>
       <use style="stroke:#000000;stroke-width:0.8;" x="347.262074" xlink:href="#m1b1b709968" y="375.709091"/>
      </g>
     </g>
    </g>
    <g id="text_39">
     <!-- y_label3 -->
     <g transform="translate(340.904261 519.988139)rotate(-90)scale(0.1 -0.1)">
      <use xlink:href="#DejaVuSans-121"/>
      <use x="59.179688" xlink:href="#DejaVuSans-95"/>
      <use x="109.179688" xlink:href="#DejaVuSans-108"/>
      <use x="136.962891" xlink:href="#DejaVuSans-97"/>
      <use x="198.242188" xlink:href="#DejaVuSans-98"/>
      <use x="261.71875" xlink:href="#DejaVuSans-101"/>
      <use x="323.242188" xlink:href="#DejaVuSans-108"/>
      <use x="351.025391" xlink:href="#DejaVuSans-51"/>
     </g>
    </g>
   </g>
   <g id="line2d_74">
    <path clip-path="url(#p5b0f49cfdf)" d="M 358.790999 498.387947 
L 361.120075 492.814882 
L 363.449151 456.522059 
L 365.778227 497.373941 
L 368.107303 453.65243 
L 370.436379 554.347131 
L 372.765455 509.701002 
L 375.094531 447.576312 
L 377.423607 502.571542 
L 379.752682 549.531049 
L 382.081758 546.857683 
L 384.410834 530.443178 
L 386.73991 553.30121 
L 389.068986 478.855193 
L 391.398062 615.183888 
L 393.727138 533.080397 
L 396.056214 556.524065 
L 398.385289 555.807176 
L 400.714365 522.70972 
L 403.043441 550.111347 
L 405.372517 479.586206 
L 407.701593 531.766732 
L 410.030669 521.996598 
L 412.359745 464.759134 
L 414.688821 488.02353 
L 417.017897 494.055115 
L 419.346972 500.319442 
L 421.676048 545.557002 
L 424.005124 486.83523 
L 426.3342 412.007098 
L 428.663276 510.083969 
L 430.992352 540.575885 
L 433.321428 561.760154 
L 435.650504 578.40579 
L 437.979579 513.394127 
L 440.308655 521.507731 
L 442.637731 456.212565 
L 444.966807 502.546424 
L 447.295883 472.017098 
L 449.624959 473.582277 
L 451.954035 449.893943 
L 454.283111 511.970701 
L 456.612187 459.301264 
L 458.941262 480.679642 
L 461.270338 543.01874 
L 463.599414 541.471758 
L 465.92849 481.974077 
L 468.257566 512.240502 
L 470.586642 590.297432 
L 472.915718 488.679473 
L 475.244794 488.525473 
L 477.57387 491.093136 
L 479.902945 436.417184 
L 482.232021 515.656121 
L 484.561097 562.526094 
L 486.890173 473.139134 
L 489.219249 492.875366 
L 491.548325 474.517584 
L 493.877401 472.598152 
L 496.206477 493.095211 
L 498.535552 521.959835 
L 500.864628 501.952054 
L 503.193704 505.76608 
L 505.52278 518.046434 
L 507.851856 492.794267 
L 510.180932 504.187912 
L 512.510008 497.247232 
L 514.839084 544.150082 
L 517.16816 511.017541 
L 519.497235 546.470813 
L 521.826311 542.845438 
L 524.155387 442.555486 
L 526.484463 541.130247 
L 528.813539 479.256664 
L 531.142615 568.607915 
L 533.471691 503.519479 
L 535.800767 456.306369 
L 538.129842 466.932759 
L 540.458918 529.79042 
L 542.787994 466.566838 
L 545.11707 514.591303 
L 547.446146 539.090793 
L 549.775222 548.988561 
L 552.104298 581.946615 
L 554.433374 479.919838 
L 556.76245 467.311694 
L 559.091525 430.436989 
L 561.420601 513.719246 
L 563.749677 512.749815 
L 566.078753 522.270318 
L 568.407829 486.3947 
L 570.736905 492.800713 
L 573.065981 561.234283 
L 575.395057 479.60482 
L 577.724132 475.739424 
L 580.053208 488.791503 
L 582.382284 509.189199 
L 584.71136 578.195421 
L 587.040436 495.087148 
L 589.369512 503.652877 
" style="fill:none;stroke:#1f77b4;stroke-linecap:square;stroke-width:1.5;"/>
   </g>
   <g id="patch_19">
    <path d="M 347.262074 622.8 
L 347.262074 375.709091 
" style="fill:none;stroke:#000000;stroke-linecap:square;stroke-linejoin:miter;stroke-width:0.8;"/>
   </g>
   <g id="patch_20">
    <path d="M 600.898437 622.8 
L 600.898437 375.709091 
" style="fill:none;stroke:#000000;stroke-linecap:square;stroke-linejoin:miter;stroke-width:0.8;"/>
   </g>
   <g id="patch_21">
    <path d="M 347.262074 622.8 
L 600.898437 622.8 
" style="fill:none;stroke:#000000;stroke-linecap:square;stroke-linejoin:miter;stroke-width:0.8;"/>
   </g>
   <g id="patch_22">
    <path d="M 347.262074 375.709091 
L 600.898437 375.709091 
" style="fill:none;stroke:#000000;stroke-linecap:square;stroke-linejoin:miter;stroke-width:0.8;"/>
   </g>
   <g id="text_40">
    <!-- (1,1) -->
    <g transform="translate(459.856506 369.709091)scale(0.12 -0.12)">
     <use xlink:href="#DejaVuSans-40"/>
     <use x="39.013672" xlink:href="#DejaVuSans-49"/>
     <use x="102.636719" xlink:href="#DejaVuSans-44"/>
     <use x="134.423828" xlink:href="#DejaVuSans-49"/>
     <use x="198.046875" xlink:href="#DejaVuSans-41"/>
    </g>
   </g>
  </g>
  <g id="text_41">
   <!-- Suptitle -->
   <g transform="translate(289.747813 16.318125)scale(0.12 -0.12)">
    <defs>
     <path d="M 8.5 21.578125 
L 8.5 54.6875 
L 17.484375 54.6875 
L 17.484375 21.921875 
Q 17.484375 14.15625 20.5 10.265625 
Q 23.53125 6.390625 29.59375 6.390625 
Q 36.859375 6.390625 41.078125 11.03125 
Q 45.3125 15.671875 45.3125 23.6875 
L 45.3125 54.6875 
L 54.296875 54.6875 
L 54.296875 0 
L 45.3125 0 
L 45.3125 8.40625 
Q 42.046875 3.421875 37.71875 1 
Q 33.40625 -1.421875 27.6875 -1.421875 
Q 18.265625 -1.421875 13.375 4.4375 
Q 8.5 10.296875 8.5 21.578125 
z
M 31.109375 56 
z
" id="DejaVuSans-117"/>
    </defs>
    <use xlink:href="#DejaVuSans-83"/>
    <use x="63.476562" xlink:href="#DejaVuSans-117"/>
    <use x="126.855469" xlink:href="#DejaVuSans-112"/>
    <use x="190.332031" xlink:href="#DejaVuSans-116"/>
    <use x="229.541016" xlink:href="#DejaVuSans-105"/>
    <use x="257.324219" xlink:href="#DejaVuSans-116"/>
    <use x="296.533203" xlink:href="#DejaVuSans-108"/>
    <use x="324.316406" xlink:href="#DejaVuSans-101"/>
   </g>
  </g>
 </g>
 <defs>
  <clipPath id="p87ea11089e">
   <rect height="247.090909" width="253.636364" x="42.898438" y="79.2"/>
  </clipPath>
  <clipPath id="p3699d0a3fb">
   <rect height="247.090909" width="253.636364" x="347.262074" y="79.2"/>
  </clipPath>
  <clipPath id="p80c4308c3f">
   <rect height="247.090909" width="253.636364" x="42.898438" y="375.709091"/>
  </clipPath>
  <clipPath id="p5b0f49cfdf">
   <rect height="247.090909" width="253.636364" x="347.262074" y="375.709091"/>
  </clipPath>
 </defs>
</svg>
